<mxfile host="65bd71144e" pages="7">
    <diagram id="9YUfMd6E4KthZk4kom6o" name="Basic">
        <mxGraphModel dx="1188" dy="644" grid="1" gridSize="10" guides="1" tooltips="1" connect="1" arrows="1" fold="1" page="1" pageScale="1" pageWidth="850" pageHeight="1100" math="0" shadow="0">
            <root>
                <mxCell id="0"/>
                <mxCell id="1" parent="0"/>
                <mxCell id="Al805DOzdkPpneg158_Z-1" value="create content" style="shape=umlFrame;whiteSpace=wrap;html=1;width=120;height=30;boundedLbl=1;verticalAlign=middle;align=left;spacingLeft=5;fillColor=#f5f5f5;fontColor=#333333;strokeColor=#666666;" parent="1" vertex="1">
                    <mxGeometry x="40" y="40" width="880" height="640" as="geometry"/>
                </mxCell>
                <mxCell id="Al805DOzdkPpneg158_Z-17" value="publishPost(userId,Content)" style="html=1;verticalAlign=bottom;endArrow=block;rounded=0;exitX=1.003;exitY=0.128;exitDx=0;exitDy=0;exitPerimeter=0;entryX=0.003;entryY=-0.002;entryDx=0;entryDy=0;entryPerimeter=0;" parent="1" source="Brh_mnJi5IMDe2LUyWTu-10" target="Brh_mnJi5IMDe2LUyWTu-18" edge="1">
                    <mxGeometry x="-0.0028" relative="1" as="geometry">
                        <mxPoint x="244.82999999999993" y="240.31999999999994" as="sourcePoint"/>
                        <mxPoint x="395" y="240.31999999999994" as="targetPoint"/>
                        <mxPoint as="offset"/>
                    </mxGeometry>
                </mxCell>
                <mxCell id="Al805DOzdkPpneg158_Z-23" style="edgeStyle=none;rounded=0;orthogonalLoop=1;jettySize=auto;html=1;endArrow=open;endFill=0;dashed=1;exitX=-0.015;exitY=1;exitDx=0;exitDy=0;exitPerimeter=0;entryX=0.495;entryY=1.001;entryDx=0;entryDy=0;entryPerimeter=0;" parent="1" source="Brh_mnJi5IMDe2LUyWTu-10" target="Brh_mnJi5IMDe2LUyWTu-5" edge="1">
                    <mxGeometry relative="1" as="geometry">
                        <Array as="points">
                            <mxPoint x="150" y="520"/>
                        </Array>
                        <mxPoint x="80" y="520" as="targetPoint"/>
                        <mxPoint x="235.11000000000013" y="519.3599999999999" as="sourcePoint"/>
                    </mxGeometry>
                </mxCell>
                <mxCell id="Al805DOzdkPpneg158_Z-30" value="showPageContents()" style="edgeLabel;html=1;align=center;verticalAlign=bottom;resizable=0;points=[];" parent="Al805DOzdkPpneg158_Z-23" vertex="1" connectable="0">
                    <mxGeometry x="-0.0596" y="-1" relative="1" as="geometry">
                        <mxPoint as="offset"/>
                    </mxGeometry>
                </mxCell>
                <mxCell id="f-mqI0CYQHJbRvDZa1W0-10" value="createContents(userId,Content)" style="html=1;verticalAlign=bottom;endArrow=block;rounded=0;exitX=0.994;exitY=0.166;exitDx=0;exitDy=0;exitPerimeter=0;entryX=0.006;entryY=0;entryDx=0;entryDy=0;entryPerimeter=0;" parent="1" source="Brh_mnJi5IMDe2LUyWTu-18" target="Brh_mnJi5IMDe2LUyWTu-24" edge="1">
                    <mxGeometry x="0.0009" relative="1" as="geometry">
                        <mxPoint x="404.8699999999999" y="279.6" as="sourcePoint"/>
                        <mxPoint x="555.0899999999999" y="280.15999999999997" as="targetPoint"/>
                        <mxPoint as="offset"/>
                    </mxGeometry>
                </mxCell>
                <mxCell id="f-mqI0CYQHJbRvDZa1W0-16" value="" style="group;verticalAlign=top;spacingTop=36;" parent="1" vertex="1" connectable="0">
                    <mxGeometry x="880" y="110" width="39.25" height="500" as="geometry"/>
                </mxCell>
                <mxCell id="f-mqI0CYQHJbRvDZa1W0-7" value="Database" style="shape=cylinder3;whiteSpace=wrap;html=1;boundedLbl=1;backgroundOutline=1;size=15;strokeColor=#9673A6;fillColor=#E1D5E7;verticalAlign=middle;spacingTop=36;" parent="f-mqI0CYQHJbRvDZa1W0-16" vertex="1">
                    <mxGeometry width="37.5" height="50" as="geometry"/>
                </mxCell>
                <mxCell id="f-mqI0CYQHJbRvDZa1W0-15" value="Database" style="shape=cylinder3;whiteSpace=wrap;html=1;boundedLbl=1;backgroundOutline=1;size=15;strokeColor=#9673A6;fillColor=#E1D5E7;spacingTop=36;" parent="f-mqI0CYQHJbRvDZa1W0-16" vertex="1">
                    <mxGeometry x="1.75" y="440" width="37.5" height="50" as="geometry"/>
                </mxCell>
                <mxCell id="f-mqI0CYQHJbRvDZa1W0-14" value="" style="endArrow=none;html=1;rounded=0;entryX=0.5;entryY=1;entryDx=0;entryDy=0;entryPerimeter=0;exitX=0.5;exitY=0;exitDx=0;exitDy=0;exitPerimeter=0;dashed=1;strokeColor=#9673A6;" parent="f-mqI0CYQHJbRvDZa1W0-16" source="f-mqI0CYQHJbRvDZa1W0-15" target="f-mqI0CYQHJbRvDZa1W0-7" edge="1">
                    <mxGeometry width="50" height="50" relative="1" as="geometry">
                        <mxPoint x="-191.25" y="200" as="sourcePoint"/>
                        <mxPoint x="-141.25" y="150" as="targetPoint"/>
                    </mxGeometry>
                </mxCell>
                <mxCell id="Al805DOzdkPpneg158_Z-13" value="" style="html=1;points=[];perimeter=orthogonalPerimeter;fillColor=#e1d5e7;strokeColor=#9673a6;" parent="f-mqI0CYQHJbRvDZa1W0-16" vertex="1">
                    <mxGeometry x="13.75" y="210" width="10" height="80" as="geometry"/>
                </mxCell>
                <mxCell id="hI0j3te1_Zp4ngGJVeRy-8" value="addContents(userId, Contnet)" style="html=1;verticalAlign=bottom;endArrow=block;rounded=0;exitX=0.992;exitY=0.255;exitDx=0;exitDy=0;exitPerimeter=0;entryX=-0.062;entryY=0.005;entryDx=0;entryDy=0;entryPerimeter=0;" parent="1" source="Brh_mnJi5IMDe2LUyWTu-24" target="Al805DOzdkPpneg158_Z-13" edge="1">
                    <mxGeometry x="0.0006" relative="1" as="geometry">
                        <mxPoint x="565.4000000000001" y="320.48" as="sourcePoint"/>
                        <mxPoint x="710" y="320" as="targetPoint"/>
                        <mxPoint as="offset"/>
                    </mxGeometry>
                </mxCell>
                <mxCell id="hI0j3te1_Zp4ngGJVeRy-9" style="rounded=0;orthogonalLoop=1;jettySize=auto;html=1;endArrow=open;endFill=0;dashed=1;exitX=-0.002;exitY=1.001;exitDx=0;exitDy=0;exitPerimeter=0;entryX=0.998;entryY=0.876;entryDx=0;entryDy=0;entryPerimeter=0;" parent="1" source="Brh_mnJi5IMDe2LUyWTu-18" target="Brh_mnJi5IMDe2LUyWTu-10" edge="1">
                    <mxGeometry relative="1" as="geometry">
                        <mxPoint x="245.05999999999995" y="480.31999999999994" as="targetPoint"/>
                        <mxPoint x="395.1199999999999" y="479.52" as="sourcePoint"/>
                    </mxGeometry>
                </mxCell>
                <mxCell id="hI0j3te1_Zp4ngGJVeRy-10" value="showPageContents()" style="edgeLabel;html=1;align=center;verticalAlign=bottom;resizable=0;points=[];" parent="hI0j3te1_Zp4ngGJVeRy-9" vertex="1" connectable="0">
                    <mxGeometry x="-0.0596" y="-1" relative="1" as="geometry">
                        <mxPoint as="offset"/>
                    </mxGeometry>
                </mxCell>
                <mxCell id="hI0j3te1_Zp4ngGJVeRy-11" style="rounded=0;orthogonalLoop=1;jettySize=auto;html=1;endArrow=open;endFill=0;dashed=1;exitX=0;exitY=1.001;exitDx=0;exitDy=0;exitPerimeter=0;entryX=1.005;entryY=0.834;entryDx=0;entryDy=0;entryPerimeter=0;" parent="1" source="Brh_mnJi5IMDe2LUyWTu-24" target="Brh_mnJi5IMDe2LUyWTu-18" edge="1">
                    <mxGeometry relative="1" as="geometry">
                        <mxPoint x="404.96000000000004" y="440.1600000000001" as="targetPoint"/>
                        <mxPoint x="554.96" y="440" as="sourcePoint"/>
                    </mxGeometry>
                </mxCell>
                <mxCell id="hI0j3te1_Zp4ngGJVeRy-12" value="&lt;span style=&quot;color: rgb(0, 0, 0);&quot;&gt;result(success | error)&lt;/span&gt;" style="edgeLabel;html=1;align=center;verticalAlign=bottom;resizable=0;points=[];" parent="hI0j3te1_Zp4ngGJVeRy-11" vertex="1" connectable="0">
                    <mxGeometry x="-0.0596" y="-1" relative="1" as="geometry">
                        <mxPoint as="offset"/>
                    </mxGeometry>
                </mxCell>
                <mxCell id="hI0j3te1_Zp4ngGJVeRy-13" style="rounded=0;orthogonalLoop=1;jettySize=auto;html=1;endArrow=open;endFill=0;dashed=1;exitX=-0.037;exitY=0.998;exitDx=0;exitDy=0;exitPerimeter=0;entryX=1.004;entryY=0.749;entryDx=0;entryDy=0;entryPerimeter=0;" parent="1" source="Al805DOzdkPpneg158_Z-13" target="Brh_mnJi5IMDe2LUyWTu-24" edge="1">
                    <mxGeometry relative="1" as="geometry">
                        <mxPoint x="564.8499999999999" y="400" as="targetPoint"/>
                        <mxPoint x="715" y="400" as="sourcePoint"/>
                    </mxGeometry>
                </mxCell>
                <mxCell id="hI0j3te1_Zp4ngGJVeRy-14" value="result(success | error)" style="edgeLabel;html=1;align=center;verticalAlign=bottom;resizable=0;points=[];" parent="hI0j3te1_Zp4ngGJVeRy-13" vertex="1" connectable="0">
                    <mxGeometry x="-0.0596" y="-1" relative="1" as="geometry">
                        <mxPoint as="offset"/>
                    </mxGeometry>
                </mxCell>
                <mxCell id="RKpe-7u0rJ-MWehzNpvw-4" value="" style="group" parent="1" vertex="1" connectable="0">
                    <mxGeometry x="70" y="110" width="20" height="480" as="geometry"/>
                </mxCell>
                <mxCell id="Brh_mnJi5IMDe2LUyWTu-6" value="" style="group" parent="RKpe-7u0rJ-MWehzNpvw-4" vertex="1" connectable="0">
                    <mxGeometry y="10" width="20" height="480" as="geometry"/>
                </mxCell>
                <mxCell id="RKpe-7u0rJ-MWehzNpvw-3" value="" style="endArrow=none;html=1;rounded=0;entryX=0.5;entryY=0;entryDx=0;entryDy=0;entryPerimeter=0;dashed=1;strokeColor=#B85450;" parent="Brh_mnJi5IMDe2LUyWTu-6" source="Al805DOzdkPpneg158_Z-26" target="RKpe-7u0rJ-MWehzNpvw-2" edge="1">
                    <mxGeometry width="50" height="50" relative="1" as="geometry">
                        <mxPoint x="100" y="270" as="sourcePoint"/>
                        <mxPoint x="150" y="220" as="targetPoint"/>
                    </mxGeometry>
                </mxCell>
                <mxCell id="RKpe-7u0rJ-MWehzNpvw-2" value="Contributor" style="shape=umlActor;verticalLabelPosition=middle;verticalAlign=top;html=1;outlineConnect=0;strokeColor=light-dark(#B85450,#D7817E);fillColor=light-dark(#F8CECC,#512D2B);labelPosition=center;align=center;spacingTop=36;" parent="Brh_mnJi5IMDe2LUyWTu-6" vertex="1">
                    <mxGeometry y="440" width="20" height="40" as="geometry"/>
                </mxCell>
                <mxCell id="Al805DOzdkPpneg158_Z-26" value="Contributor" style="shape=umlActor;verticalLabelPosition=middle;verticalAlign=top;html=1;outlineConnect=0;strokeColor=light-dark(#B85450,#D7817E);fillColor=light-dark(#F8CECC,#512D2B);labelPosition=center;align=center;spacingTop=36;" parent="Brh_mnJi5IMDe2LUyWTu-6" vertex="1">
                    <mxGeometry width="20" height="40" as="geometry"/>
                </mxCell>
                <mxCell id="Brh_mnJi5IMDe2LUyWTu-5" value="&lt;span style=&quot;color: rgba(0, 0, 0, 0); font-family: monospace; font-size: 0px; text-align: start;&quot;&gt;%3CmxGraphModel%3E%3Croot%3E%3CmxCell%20id%3D%220%22%2F%3E%3CmxCell%20id%3D%221%22%20parent%3D%220%22%2F%3E%3CmxCell%20id%3D%222%22%20value%3D%22%5Bmessage%5D%22%20style%3D%22html%3D1%3BverticalAlign%3Dbottom%3BendArrow%3Dblock%3Brounded%3D0%3BexitX%3D0.983%3BexitY%3D0.126%3BexitDx%3D0%3BexitDy%3D0%3BexitPerimeter%3D0%3B%22%20edge%3D%221%22%20parent%3D%221%22%3E%3CmxGeometry%20x%3D%220.0009%22%20relative%3D%221%22%20as%3D%22geometry%22%3E%3CmxPoint%20x%3D%22325%22%20y%3D%22240%22%20as%3D%22sourcePoint%22%2F%3E%3CmxPoint%20x%3D%22475%22%20y%3D%22240%22%20as%3D%22targetPoint%22%2F%3E%3CmxPoint%20as%3D%22offset%22%2F%3E%3C%2FmxGeometry%3E%3C%2FmxCell%3E%3C%2Froot%3E%3C%2FmxGraphModel%3E&lt;/span&gt;" style="html=1;points=[];perimeter=orthogonalPerimeter;fillColor=#FFE6CC00;strokeColor=#D79B0000;" parent="Brh_mnJi5IMDe2LUyWTu-6" vertex="1">
                    <mxGeometry x="5" y="80" width="10" height="320" as="geometry"/>
                </mxCell>
                <mxCell id="Brh_mnJi5IMDe2LUyWTu-4" value="createPageContents(userId, Content)" style="html=1;verticalAlign=bottom;endArrow=block;rounded=0;entryX=0.018;entryY=0;entryDx=0;entryDy=0;entryPerimeter=0;exitX=0.486;exitY=0.001;exitDx=0;exitDy=0;exitPerimeter=0;" parent="1" source="Brh_mnJi5IMDe2LUyWTu-5" target="Brh_mnJi5IMDe2LUyWTu-10" edge="1">
                    <mxGeometry x="0.0009" relative="1" as="geometry">
                        <mxPoint x="80" y="200" as="sourcePoint"/>
                        <mxPoint x="235.42000000000007" y="199.3599999999999" as="targetPoint"/>
                        <mxPoint as="offset"/>
                    </mxGeometry>
                </mxCell>
                <mxCell id="Brh_mnJi5IMDe2LUyWTu-12" value="" style="group" parent="1" vertex="1" connectable="0">
                    <mxGeometry x="220" y="120" width="100" height="560" as="geometry"/>
                </mxCell>
                <mxCell id="Brh_mnJi5IMDe2LUyWTu-7" value="Page View" style="rounded=0;whiteSpace=wrap;html=1;strokeColor=#D79B00;fillColor=#FFE6CC;" parent="Brh_mnJi5IMDe2LUyWTu-12" vertex="1">
                    <mxGeometry width="100" height="40" as="geometry"/>
                </mxCell>
                <mxCell id="Brh_mnJi5IMDe2LUyWTu-8" value="Page View" style="rounded=0;whiteSpace=wrap;html=1;strokeColor=#D79B00;fillColor=#FFE6CC;" parent="Brh_mnJi5IMDe2LUyWTu-12" vertex="1">
                    <mxGeometry y="440" width="100" height="40" as="geometry"/>
                </mxCell>
                <mxCell id="Brh_mnJi5IMDe2LUyWTu-9" value="" style="endArrow=none;html=1;rounded=0;entryX=0.5;entryY=1;entryDx=0;entryDy=0;exitX=0.5;exitY=0;exitDx=0;exitDy=0;strokeColor=#D79B00;dashed=1;" parent="Brh_mnJi5IMDe2LUyWTu-12" source="Brh_mnJi5IMDe2LUyWTu-10" target="Brh_mnJi5IMDe2LUyWTu-7" edge="1">
                    <mxGeometry width="50" height="50" relative="1" as="geometry">
                        <mxPoint x="40" y="500" as="sourcePoint"/>
                        <mxPoint x="90" y="450" as="targetPoint"/>
                    </mxGeometry>
                </mxCell>
                <mxCell id="Brh_mnJi5IMDe2LUyWTu-11" value="" style="endArrow=none;html=1;rounded=0;entryX=0.5;entryY=1;entryDx=0;entryDy=0;exitX=0.5;exitY=0;exitDx=0;exitDy=0;strokeColor=#D79B00;dashed=1;" parent="Brh_mnJi5IMDe2LUyWTu-12" source="Brh_mnJi5IMDe2LUyWTu-8" target="Brh_mnJi5IMDe2LUyWTu-10" edge="1">
                    <mxGeometry width="50" height="50" relative="1" as="geometry">
                        <mxPoint x="50" y="520" as="sourcePoint"/>
                        <mxPoint x="50" y="460" as="targetPoint"/>
                    </mxGeometry>
                </mxCell>
                <mxCell id="Brh_mnJi5IMDe2LUyWTu-10" value="&lt;span style=&quot;color: rgba(237, 237, 237, 0); font-family: monospace; font-size: 0px; text-align: start;&quot;&gt;%3CmxGraphModel%3E%3Croot%3E%3CmxCell%20id%3D%220%22%2F%3E%3CmxCell%20id%3D%221%22%20parent%3D%220%22%2F%3E%3CmxCell%20id%3D%222%22%20value%3D%22%5Bmessage%5D%22%20style%3D%22html%3D1%3BverticalAlign%3Dbottom%3BendArrow%3Dblock%3Brounded%3D0%3BexitX%3D0.983%3BexitY%3D0.126%3BexitDx%3D0%3BexitDy%3D0%3BexitPerimeter%3D0%3B%22%20edge%3D%221%22%20parent%3D%221%22%3E%3CmxGeometry%20x%3D%220.0009%22%20relative%3D%221%22%20as%3D%22geometry%22%3E%3CmxPoint%20x%3D%22325%22%20y%3D%22240%22%20as%3D%22sourcePoint%22%2F%3E%3CmxPoint%20x%3D%22475%22%20y%3D%22240%22%20as%3D%22targetPoint%22%2F%3E%3CmxPoint%20as%3D%22offset%22%2F%3E%3C%2FmxGeometry%3E%3C%2FmxCell%3E%3C%2Froot%3E%3C%2FmxGraphModel%3E&lt;/span&gt;" style="html=1;points=[];perimeter=orthogonalPerimeter;fillColor=#ffe6cc;strokeColor=#d79b00;" parent="Brh_mnJi5IMDe2LUyWTu-12" vertex="1">
                    <mxGeometry x="45" y="80" width="10" height="320" as="geometry"/>
                </mxCell>
                <mxCell id="Brh_mnJi5IMDe2LUyWTu-13" value="" style="group" parent="1" vertex="1" connectable="0">
                    <mxGeometry x="440" y="120" width="100" height="560" as="geometry"/>
                </mxCell>
                <mxCell id="Brh_mnJi5IMDe2LUyWTu-14" value="PageController" style="rounded=0;whiteSpace=wrap;html=1;strokeColor=#6C8EBF;fillColor=#DAE8FC;" parent="Brh_mnJi5IMDe2LUyWTu-13" vertex="1">
                    <mxGeometry width="100" height="40" as="geometry"/>
                </mxCell>
                <mxCell id="Brh_mnJi5IMDe2LUyWTu-15" value="PageController" style="rounded=0;whiteSpace=wrap;html=1;strokeColor=#6C8EBF;fillColor=#DAE8FC;" parent="Brh_mnJi5IMDe2LUyWTu-13" vertex="1">
                    <mxGeometry y="440" width="100" height="40" as="geometry"/>
                </mxCell>
                <mxCell id="Brh_mnJi5IMDe2LUyWTu-16" value="" style="endArrow=none;html=1;rounded=0;entryX=0.5;entryY=1;entryDx=0;entryDy=0;exitX=0.5;exitY=0;exitDx=0;exitDy=0;strokeColor=#6C8EBF;dashed=1;" parent="Brh_mnJi5IMDe2LUyWTu-13" source="Brh_mnJi5IMDe2LUyWTu-18" target="Brh_mnJi5IMDe2LUyWTu-14" edge="1">
                    <mxGeometry width="50" height="50" relative="1" as="geometry">
                        <mxPoint x="40" y="500" as="sourcePoint"/>
                        <mxPoint x="90" y="450" as="targetPoint"/>
                    </mxGeometry>
                </mxCell>
                <mxCell id="Brh_mnJi5IMDe2LUyWTu-17" value="" style="endArrow=none;html=1;rounded=0;entryX=0.5;entryY=1;entryDx=0;entryDy=0;exitX=0.5;exitY=0;exitDx=0;exitDy=0;strokeColor=#6C8EBF;dashed=1;" parent="Brh_mnJi5IMDe2LUyWTu-13" source="Brh_mnJi5IMDe2LUyWTu-15" target="Brh_mnJi5IMDe2LUyWTu-18" edge="1">
                    <mxGeometry width="50" height="50" relative="1" as="geometry">
                        <mxPoint x="50" y="520" as="sourcePoint"/>
                        <mxPoint x="50" y="460" as="targetPoint"/>
                    </mxGeometry>
                </mxCell>
                <mxCell id="Brh_mnJi5IMDe2LUyWTu-18" value="&lt;span style=&quot;color: rgba(237, 237, 237, 0); font-family: monospace; font-size: 0px; text-align: start;&quot;&gt;%3CmxGraphModel%3E%3Croot%3E%3CmxCell%20id%3D%220%22%2F%3E%3CmxCell%20id%3D%221%22%20parent%3D%220%22%2F%3E%3CmxCell%20id%3D%222%22%20value%3D%22%5Bmessage%5D%22%20style%3D%22html%3D1%3BverticalAlign%3Dbottom%3BendArrow%3Dblock%3Brounded%3D0%3BexitX%3D0.983%3BexitY%3D0.126%3BexitDx%3D0%3BexitDy%3D0%3BexitPerimeter%3D0%3B%22%20edge%3D%221%22%20parent%3D%221%22%3E%3CmxGeometry%20x%3D%220.0009%22%20relative%3D%221%22%20as%3D%22geometry%22%3E%3CmxPoint%20x%3D%22325%22%20y%3D%22240%22%20as%3D%22sourcePoint%22%2F%3E%3CmxPoint%20x%3D%22475%22%20y%3D%22240%22%20as%3D%22targetPoint%22%2F%3E%3CmxPoint%20as%3D%22offset%22%2F%3E%3C%2FmxGeometry%3E%3C%2FmxCell%3E%3C%2Froot%3E%3C%2FmxGraphModel%3E&lt;/span&gt;" style="html=1;points=[];perimeter=orthogonalPerimeter;fillColor=#DAE8FC;strokeColor=#6C8EBF;" parent="Brh_mnJi5IMDe2LUyWTu-13" vertex="1">
                    <mxGeometry x="45" y="120" width="10" height="240" as="geometry"/>
                </mxCell>
                <mxCell id="Brh_mnJi5IMDe2LUyWTu-19" value="" style="group" parent="1" vertex="1" connectable="0">
                    <mxGeometry x="620" y="120" width="100" height="560" as="geometry"/>
                </mxCell>
                <mxCell id="Brh_mnJi5IMDe2LUyWTu-20" value="Page" style="rounded=0;whiteSpace=wrap;html=1;strokeColor=#82B366;fillColor=#D5E8D4;" parent="Brh_mnJi5IMDe2LUyWTu-19" vertex="1">
                    <mxGeometry width="100" height="40" as="geometry"/>
                </mxCell>
                <mxCell id="Brh_mnJi5IMDe2LUyWTu-21" value="Page" style="rounded=0;whiteSpace=wrap;html=1;strokeColor=#82B366;fillColor=#D5E8D4;" parent="Brh_mnJi5IMDe2LUyWTu-19" vertex="1">
                    <mxGeometry y="440" width="100" height="40" as="geometry"/>
                </mxCell>
                <mxCell id="Brh_mnJi5IMDe2LUyWTu-22" value="" style="endArrow=none;html=1;rounded=0;entryX=0.5;entryY=1;entryDx=0;entryDy=0;exitX=0.5;exitY=0;exitDx=0;exitDy=0;strokeColor=#82B366;dashed=1;" parent="Brh_mnJi5IMDe2LUyWTu-19" source="Brh_mnJi5IMDe2LUyWTu-24" target="Brh_mnJi5IMDe2LUyWTu-20" edge="1">
                    <mxGeometry width="50" height="50" relative="1" as="geometry">
                        <mxPoint x="40" y="500" as="sourcePoint"/>
                        <mxPoint x="90" y="450" as="targetPoint"/>
                    </mxGeometry>
                </mxCell>
                <mxCell id="Brh_mnJi5IMDe2LUyWTu-23" value="" style="endArrow=none;html=1;rounded=0;entryX=0.5;entryY=1;entryDx=0;entryDy=0;exitX=0.5;exitY=0;exitDx=0;exitDy=0;strokeColor=#82B366;dashed=1;" parent="Brh_mnJi5IMDe2LUyWTu-19" source="Brh_mnJi5IMDe2LUyWTu-21" target="Brh_mnJi5IMDe2LUyWTu-24" edge="1">
                    <mxGeometry width="50" height="50" relative="1" as="geometry">
                        <mxPoint x="50" y="520" as="sourcePoint"/>
                        <mxPoint x="50" y="460" as="targetPoint"/>
                    </mxGeometry>
                </mxCell>
                <mxCell id="Brh_mnJi5IMDe2LUyWTu-24" value="&lt;span style=&quot;color: rgba(237, 237, 237, 0); font-family: monospace; font-size: 0px; text-align: start;&quot;&gt;%3CmxGraphModel%3E%3Croot%3E%3CmxCell%20id%3D%220%22%2F%3E%3CmxCell%20id%3D%221%22%20parent%3D%220%22%2F%3E%3CmxCell%20id%3D%222%22%20value%3D%22%5Bmessage%5D%22%20style%3D%22html%3D1%3BverticalAlign%3Dbottom%3BendArrow%3Dblock%3Brounded%3D0%3BexitX%3D0.983%3BexitY%3D0.126%3BexitDx%3D0%3BexitDy%3D0%3BexitPerimeter%3D0%3B%22%20edge%3D%221%22%20parent%3D%221%22%3E%3CmxGeometry%20x%3D%220.0009%22%20relative%3D%221%22%20as%3D%22geometry%22%3E%3CmxPoint%20x%3D%22325%22%20y%3D%22240%22%20as%3D%22sourcePoint%22%2F%3E%3CmxPoint%20x%3D%22475%22%20y%3D%22240%22%20as%3D%22targetPoint%22%2F%3E%3CmxPoint%20as%3D%22offset%22%2F%3E%3C%2FmxGeometry%3E%3C%2FmxCell%3E%3C%2Froot%3E%3C%2FmxGraphModel%3E&lt;/span&gt;" style="html=1;points=[];perimeter=orthogonalPerimeter;fillColor=#D5E8D4;strokeColor=#82B366;" parent="Brh_mnJi5IMDe2LUyWTu-19" vertex="1">
                    <mxGeometry x="45" y="160" width="10" height="160" as="geometry"/>
                </mxCell>
            </root>
        </mxGraphModel>
    </diagram>
    <diagram name="Self Loops" id="LiElEN3oWiDO9pWh5KYw">
        <mxGraphModel dx="579" dy="402" grid="1" gridSize="10" guides="1" tooltips="1" connect="1" arrows="1" fold="1" page="1" pageScale="1" pageWidth="850" pageHeight="1100" math="0" shadow="0">
            <root>
                <mxCell id="mJ60ytqAAx1X_pMdLTKa-0"/>
                <mxCell id="mJ60ytqAAx1X_pMdLTKa-1" parent="mJ60ytqAAx1X_pMdLTKa-0"/>
                <mxCell id="I6yM09CKQB9qnqhZAWwM-0" value="[use case name]" style="shape=umlFrame;whiteSpace=wrap;html=1;width=120;height=30;boundedLbl=1;verticalAlign=middle;align=left;spacingLeft=5;fillColor=#f5f5f5;fontColor=#333333;strokeColor=#666666;" parent="mJ60ytqAAx1X_pMdLTKa-1" vertex="1">
                    <mxGeometry x="40" y="40" width="760" height="680" as="geometry"/>
                </mxCell>
                <mxCell id="I6yM09CKQB9qnqhZAWwM-1" value="[message]" style="html=1;verticalAlign=bottom;endArrow=block;rounded=0;exitX=1;exitY=0.112;exitDx=0;exitDy=0;exitPerimeter=0;entryX=0.003;entryY=-0.002;entryDx=0;entryDy=0;entryPerimeter=0;" parent="mJ60ytqAAx1X_pMdLTKa-1" source="I6yM09CKQB9qnqhZAWwM-29" target="I6yM09CKQB9qnqhZAWwM-35" edge="1">
                    <mxGeometry x="0.0039" relative="1" as="geometry">
                        <mxPoint x="244.82999999999993" y="280.31999999999994" as="sourcePoint"/>
                        <mxPoint x="395" y="280.31999999999994" as="targetPoint"/>
                        <mxPoint as="offset"/>
                    </mxGeometry>
                </mxCell>
                <mxCell id="I6yM09CKQB9qnqhZAWwM-2" style="edgeStyle=none;rounded=0;orthogonalLoop=1;jettySize=auto;html=1;endArrow=open;endFill=0;dashed=1;exitX=-0.015;exitY=1;exitDx=0;exitDy=0;exitPerimeter=0;entryX=0.495;entryY=1.001;entryDx=0;entryDy=0;entryPerimeter=0;" parent="mJ60ytqAAx1X_pMdLTKa-1" source="I6yM09CKQB9qnqhZAWwM-29" target="I6yM09CKQB9qnqhZAWwM-22" edge="1">
                    <mxGeometry relative="1" as="geometry">
                        <Array as="points">
                            <mxPoint x="150" y="560"/>
                        </Array>
                        <mxPoint x="80" y="560" as="targetPoint"/>
                        <mxPoint x="235.11000000000013" y="559.3599999999999" as="sourcePoint"/>
                    </mxGeometry>
                </mxCell>
                <mxCell id="I6yM09CKQB9qnqhZAWwM-3" value="[message]" style="edgeLabel;html=1;align=center;verticalAlign=bottom;resizable=0;points=[];" parent="I6yM09CKQB9qnqhZAWwM-2" vertex="1" connectable="0">
                    <mxGeometry x="-0.0596" y="-1" relative="1" as="geometry">
                        <mxPoint as="offset"/>
                    </mxGeometry>
                </mxCell>
                <mxCell id="I6yM09CKQB9qnqhZAWwM-4" value="[message]" style="html=1;verticalAlign=bottom;endArrow=block;rounded=0;exitX=1;exitY=0.286;exitDx=0;exitDy=0;exitPerimeter=0;entryX=0.006;entryY=0;entryDx=0;entryDy=0;entryPerimeter=0;" parent="mJ60ytqAAx1X_pMdLTKa-1" source="I6yM09CKQB9qnqhZAWwM-35" target="I6yM09CKQB9qnqhZAWwM-41" edge="1">
                    <mxGeometry x="0.0009" relative="1" as="geometry">
                        <mxPoint x="404.8699999999999" y="319.6" as="sourcePoint"/>
                        <mxPoint x="555.0899999999999" y="320.15999999999997" as="targetPoint"/>
                        <mxPoint as="offset"/>
                    </mxGeometry>
                </mxCell>
                <mxCell id="I6yM09CKQB9qnqhZAWwM-5" value="" style="group;verticalAlign=top;spacingTop=36;" parent="mJ60ytqAAx1X_pMdLTKa-1" vertex="1" connectable="0">
                    <mxGeometry x="700" y="150" width="39.25" height="500" as="geometry"/>
                </mxCell>
                <mxCell id="I6yM09CKQB9qnqhZAWwM-7" value="Database" style="shape=cylinder3;whiteSpace=wrap;html=1;boundedLbl=1;backgroundOutline=1;size=15;strokeColor=#9673A6;fillColor=#E1D5E7;spacingTop=36;" parent="I6yM09CKQB9qnqhZAWwM-5" vertex="1">
                    <mxGeometry x="1.75" y="440" width="37.5" height="50" as="geometry"/>
                </mxCell>
                <mxCell id="I6yM09CKQB9qnqhZAWwM-9" value="" style="html=1;points=[];perimeter=orthogonalPerimeter;fillColor=#e1d5e7;strokeColor=#9673a6;" parent="I6yM09CKQB9qnqhZAWwM-5" vertex="1">
                    <mxGeometry x="13.75" y="210" width="10" height="80" as="geometry"/>
                </mxCell>
                <mxCell id="I6yM09CKQB9qnqhZAWwM-10" value="[message]" style="html=1;verticalAlign=bottom;endArrow=block;rounded=0;exitX=0.992;exitY=0.255;exitDx=0;exitDy=0;exitPerimeter=0;entryX=-0.062;entryY=0.005;entryDx=0;entryDy=0;entryPerimeter=0;" parent="mJ60ytqAAx1X_pMdLTKa-1" source="I6yM09CKQB9qnqhZAWwM-41" target="I6yM09CKQB9qnqhZAWwM-9" edge="1">
                    <mxGeometry x="0.0009" relative="1" as="geometry">
                        <mxPoint x="565.4000000000001" y="360.48" as="sourcePoint"/>
                        <mxPoint x="710" y="360" as="targetPoint"/>
                        <mxPoint as="offset"/>
                    </mxGeometry>
                </mxCell>
                <mxCell id="I6yM09CKQB9qnqhZAWwM-11" style="rounded=0;orthogonalLoop=1;jettySize=auto;html=1;endArrow=open;endFill=0;dashed=1;exitX=-0.002;exitY=1.001;exitDx=0;exitDy=0;exitPerimeter=0;entryX=1.001;entryY=0.889;entryDx=0;entryDy=0;entryPerimeter=0;" parent="mJ60ytqAAx1X_pMdLTKa-1" source="I6yM09CKQB9qnqhZAWwM-35" target="I6yM09CKQB9qnqhZAWwM-29" edge="1">
                    <mxGeometry relative="1" as="geometry">
                        <mxPoint x="245.05999999999995" y="520.3199999999999" as="targetPoint"/>
                        <mxPoint x="395.1199999999999" y="519.52" as="sourcePoint"/>
                    </mxGeometry>
                </mxCell>
                <mxCell id="I6yM09CKQB9qnqhZAWwM-12" value="[message]" style="edgeLabel;html=1;align=center;verticalAlign=bottom;resizable=0;points=[];" parent="I6yM09CKQB9qnqhZAWwM-11" vertex="1" connectable="0">
                    <mxGeometry x="-0.0596" y="-1" relative="1" as="geometry">
                        <mxPoint as="offset"/>
                    </mxGeometry>
                </mxCell>
                <mxCell id="I6yM09CKQB9qnqhZAWwM-13" style="rounded=0;orthogonalLoop=1;jettySize=auto;html=1;endArrow=open;endFill=0;dashed=1;exitX=0;exitY=1.001;exitDx=0;exitDy=0;exitPerimeter=0;entryX=1;entryY=0.857;entryDx=0;entryDy=0;entryPerimeter=0;" parent="mJ60ytqAAx1X_pMdLTKa-1" source="I6yM09CKQB9qnqhZAWwM-41" target="I6yM09CKQB9qnqhZAWwM-35" edge="1">
                    <mxGeometry relative="1" as="geometry">
                        <mxPoint x="404.96000000000004" y="480.1600000000001" as="targetPoint"/>
                        <mxPoint x="554.96" y="480" as="sourcePoint"/>
                    </mxGeometry>
                </mxCell>
                <mxCell id="I6yM09CKQB9qnqhZAWwM-14" value="[message]" style="edgeLabel;html=1;align=center;verticalAlign=bottom;resizable=0;points=[];" parent="I6yM09CKQB9qnqhZAWwM-13" vertex="1" connectable="0">
                    <mxGeometry x="-0.0596" y="-1" relative="1" as="geometry">
                        <mxPoint as="offset"/>
                    </mxGeometry>
                </mxCell>
                <mxCell id="I6yM09CKQB9qnqhZAWwM-15" style="rounded=0;orthogonalLoop=1;jettySize=auto;html=1;endArrow=open;endFill=0;dashed=1;exitX=-0.037;exitY=0.998;exitDx=0;exitDy=0;exitPerimeter=0;entryX=1.004;entryY=0.749;entryDx=0;entryDy=0;entryPerimeter=0;" parent="mJ60ytqAAx1X_pMdLTKa-1" source="I6yM09CKQB9qnqhZAWwM-9" target="I6yM09CKQB9qnqhZAWwM-41" edge="1">
                    <mxGeometry relative="1" as="geometry">
                        <mxPoint x="564.8499999999999" y="440" as="targetPoint"/>
                        <mxPoint x="715" y="440" as="sourcePoint"/>
                    </mxGeometry>
                </mxCell>
                <mxCell id="I6yM09CKQB9qnqhZAWwM-16" value="[message]" style="edgeLabel;html=1;align=center;verticalAlign=bottom;resizable=0;points=[];" parent="I6yM09CKQB9qnqhZAWwM-15" vertex="1" connectable="0">
                    <mxGeometry x="-0.0596" y="-1" relative="1" as="geometry">
                        <mxPoint as="offset"/>
                    </mxGeometry>
                </mxCell>
                <mxCell id="I6yM09CKQB9qnqhZAWwM-17" value="" style="group" parent="mJ60ytqAAx1X_pMdLTKa-1" vertex="1" connectable="0">
                    <mxGeometry x="70" y="150" width="20" height="480" as="geometry"/>
                </mxCell>
                <mxCell id="I6yM09CKQB9qnqhZAWwM-18" value="" style="group" parent="I6yM09CKQB9qnqhZAWwM-17" vertex="1" connectable="0">
                    <mxGeometry y="10" width="20" height="480" as="geometry"/>
                </mxCell>
                <mxCell id="I6yM09CKQB9qnqhZAWwM-20" value="[Actor]" style="shape=umlActor;verticalLabelPosition=middle;verticalAlign=top;html=1;outlineConnect=0;strokeColor=light-dark(#B85450,#D7817E);fillColor=light-dark(#F8CECC,#512D2B);labelPosition=center;align=center;spacingTop=36;" parent="I6yM09CKQB9qnqhZAWwM-18" vertex="1">
                    <mxGeometry y="440" width="20" height="40" as="geometry"/>
                </mxCell>
                <mxCell id="I6yM09CKQB9qnqhZAWwM-22" value="&lt;span style=&quot;color: rgba(0, 0, 0, 0); font-family: monospace; font-size: 0px; text-align: start;&quot;&gt;%3CmxGraphModel%3E%3Croot%3E%3CmxCell%20id%3D%220%22%2F%3E%3CmxCell%20id%3D%221%22%20parent%3D%220%22%2F%3E%3CmxCell%20id%3D%222%22%20value%3D%22%5Bmessage%5D%22%20style%3D%22html%3D1%3BverticalAlign%3Dbottom%3BendArrow%3Dblock%3Brounded%3D0%3BexitX%3D0.983%3BexitY%3D0.126%3BexitDx%3D0%3BexitDy%3D0%3BexitPerimeter%3D0%3B%22%20edge%3D%221%22%20parent%3D%221%22%3E%3CmxGeometry%20x%3D%220.0009%22%20relative%3D%221%22%20as%3D%22geometry%22%3E%3CmxPoint%20x%3D%22325%22%20y%3D%22240%22%20as%3D%22sourcePoint%22%2F%3E%3CmxPoint%20x%3D%22475%22%20y%3D%22240%22%20as%3D%22targetPoint%22%2F%3E%3CmxPoint%20as%3D%22offset%22%2F%3E%3C%2FmxGeometry%3E%3C%2FmxCell%3E%3C%2Froot%3E%3C%2FmxGraphModel%3E&lt;/span&gt;" style="html=1;points=[];perimeter=orthogonalPerimeter;fillColor=#FFE6CC00;strokeColor=#D79B0000;" parent="I6yM09CKQB9qnqhZAWwM-18" vertex="1">
                    <mxGeometry x="5" y="40" width="10" height="360" as="geometry"/>
                </mxCell>
                <mxCell id="I6yM09CKQB9qnqhZAWwM-23" value="[message]" style="html=1;verticalAlign=bottom;endArrow=block;rounded=0;entryX=0.018;entryY=0;entryDx=0;entryDy=0;entryPerimeter=0;exitX=0.488;exitY=0.002;exitDx=0;exitDy=0;exitPerimeter=0;" parent="mJ60ytqAAx1X_pMdLTKa-1" source="I6yM09CKQB9qnqhZAWwM-22" target="I6yM09CKQB9qnqhZAWwM-29" edge="1">
                    <mxGeometry x="0.0009" relative="1" as="geometry">
                        <mxPoint x="80" y="240" as="sourcePoint"/>
                        <mxPoint x="235.42000000000007" y="239.3599999999999" as="targetPoint"/>
                        <mxPoint as="offset"/>
                    </mxGeometry>
                </mxCell>
                <mxCell id="I6yM09CKQB9qnqhZAWwM-24" value="" style="group" parent="mJ60ytqAAx1X_pMdLTKa-1" vertex="1" connectable="0">
                    <mxGeometry x="190" y="160" width="100" height="560" as="geometry"/>
                </mxCell>
                <mxCell id="I6yM09CKQB9qnqhZAWwM-26" value="[View]" style="rounded=0;whiteSpace=wrap;html=1;strokeColor=#D79B00;fillColor=#FFE6CC;" parent="I6yM09CKQB9qnqhZAWwM-24" vertex="1">
                    <mxGeometry y="440" width="100" height="40" as="geometry"/>
                </mxCell>
                <mxCell id="I6yM09CKQB9qnqhZAWwM-28" value="" style="endArrow=none;html=1;rounded=0;entryX=0.5;entryY=1;entryDx=0;entryDy=0;exitX=0.5;exitY=0;exitDx=0;exitDy=0;strokeColor=#D79B00;dashed=1;" parent="I6yM09CKQB9qnqhZAWwM-24" source="I6yM09CKQB9qnqhZAWwM-26" target="I6yM09CKQB9qnqhZAWwM-29" edge="1">
                    <mxGeometry width="50" height="50" relative="1" as="geometry">
                        <mxPoint x="50" y="520" as="sourcePoint"/>
                        <mxPoint x="50" y="460" as="targetPoint"/>
                    </mxGeometry>
                </mxCell>
                <mxCell id="I6yM09CKQB9qnqhZAWwM-29" value="&lt;span style=&quot;color: rgba(237, 237, 237, 0); font-family: monospace; font-size: 0px; text-align: start;&quot;&gt;%3CmxGraphModel%3E%3Croot%3E%3CmxCell%20id%3D%220%22%2F%3E%3CmxCell%20id%3D%221%22%20parent%3D%220%22%2F%3E%3CmxCell%20id%3D%222%22%20value%3D%22%5Bmessage%5D%22%20style%3D%22html%3D1%3BverticalAlign%3Dbottom%3BendArrow%3Dblock%3Brounded%3D0%3BexitX%3D0.983%3BexitY%3D0.126%3BexitDx%3D0%3BexitDy%3D0%3BexitPerimeter%3D0%3B%22%20edge%3D%221%22%20parent%3D%221%22%3E%3CmxGeometry%20x%3D%220.0009%22%20relative%3D%221%22%20as%3D%22geometry%22%3E%3CmxPoint%20x%3D%22325%22%20y%3D%22240%22%20as%3D%22sourcePoint%22%2F%3E%3CmxPoint%20x%3D%22475%22%20y%3D%22240%22%20as%3D%22targetPoint%22%2F%3E%3CmxPoint%20as%3D%22offset%22%2F%3E%3C%2FmxGeometry%3E%3C%2FmxCell%3E%3C%2Froot%3E%3C%2FmxGraphModel%3E&lt;/span&gt;" style="html=1;points=[];perimeter=orthogonalPerimeter;fillColor=#ffe6cc;strokeColor=#d79b00;" parent="I6yM09CKQB9qnqhZAWwM-24" vertex="1">
                    <mxGeometry x="45" y="40" width="10" height="360" as="geometry"/>
                </mxCell>
                <mxCell id="I6yM09CKQB9qnqhZAWwM-30" value="" style="group" parent="mJ60ytqAAx1X_pMdLTKa-1" vertex="1" connectable="0">
                    <mxGeometry x="350" y="160" width="100" height="560" as="geometry"/>
                </mxCell>
                <mxCell id="I6yM09CKQB9qnqhZAWwM-32" value="[Controller]" style="rounded=0;whiteSpace=wrap;html=1;strokeColor=#6C8EBF;fillColor=#DAE8FC;" parent="I6yM09CKQB9qnqhZAWwM-30" vertex="1">
                    <mxGeometry y="440" width="100" height="40" as="geometry"/>
                </mxCell>
                <mxCell id="I6yM09CKQB9qnqhZAWwM-34" value="" style="endArrow=none;html=1;rounded=0;entryX=0.5;entryY=1;entryDx=0;entryDy=0;exitX=0.5;exitY=0;exitDx=0;exitDy=0;strokeColor=#6C8EBF;dashed=1;" parent="I6yM09CKQB9qnqhZAWwM-30" source="I6yM09CKQB9qnqhZAWwM-32" target="I6yM09CKQB9qnqhZAWwM-35" edge="1">
                    <mxGeometry width="50" height="50" relative="1" as="geometry">
                        <mxPoint x="50" y="520" as="sourcePoint"/>
                        <mxPoint x="50" y="460" as="targetPoint"/>
                    </mxGeometry>
                </mxCell>
                <mxCell id="I6yM09CKQB9qnqhZAWwM-35" value="&lt;span style=&quot;color: rgba(237, 237, 237, 0); font-family: monospace; font-size: 0px; text-align: start;&quot;&gt;%3CmxGraphModel%3E%3Croot%3E%3CmxCell%20id%3D%220%22%2F%3E%3CmxCell%20id%3D%221%22%20parent%3D%220%22%2F%3E%3CmxCell%20id%3D%222%22%20value%3D%22%5Bmessage%5D%22%20style%3D%22html%3D1%3BverticalAlign%3Dbottom%3BendArrow%3Dblock%3Brounded%3D0%3BexitX%3D0.983%3BexitY%3D0.126%3BexitDx%3D0%3BexitDy%3D0%3BexitPerimeter%3D0%3B%22%20edge%3D%221%22%20parent%3D%221%22%3E%3CmxGeometry%20x%3D%220.0009%22%20relative%3D%221%22%20as%3D%22geometry%22%3E%3CmxPoint%20x%3D%22325%22%20y%3D%22240%22%20as%3D%22sourcePoint%22%2F%3E%3CmxPoint%20x%3D%22475%22%20y%3D%22240%22%20as%3D%22targetPoint%22%2F%3E%3CmxPoint%20as%3D%22offset%22%2F%3E%3C%2FmxGeometry%3E%3C%2FmxCell%3E%3C%2Froot%3E%3C%2FmxGraphModel%3E&lt;/span&gt;" style="html=1;points=[];perimeter=orthogonalPerimeter;fillColor=#DAE8FC;strokeColor=#6C8EBF;" parent="I6yM09CKQB9qnqhZAWwM-30" vertex="1">
                    <mxGeometry x="45" y="80" width="10" height="280" as="geometry"/>
                </mxCell>
                <mxCell id="2bXyMi_gw9HklYWOTqcA-0" value="" style="html=1;points=[];perimeter=orthogonalPerimeter;fillColor=#DAE8FC;strokeColor=#6C8EBF;" parent="I6yM09CKQB9qnqhZAWwM-30" vertex="1">
                    <mxGeometry x="50" y="108" width="10" height="40" as="geometry"/>
                </mxCell>
                <mxCell id="2bXyMi_gw9HklYWOTqcA-1" value="[self loops message]" style="edgeStyle=orthogonalEdgeStyle;html=1;align=left;spacingLeft=2;endArrow=block;rounded=0;entryX=1;entryY=0;" parent="I6yM09CKQB9qnqhZAWwM-30" target="2bXyMi_gw9HklYWOTqcA-0" edge="1">
                    <mxGeometry x="-0.0094" relative="1" as="geometry">
                        <mxPoint x="55" y="98" as="sourcePoint"/>
                        <Array as="points">
                            <mxPoint x="80" y="98"/>
                            <mxPoint x="80" y="108"/>
                        </Array>
                        <mxPoint as="offset"/>
                    </mxGeometry>
                </mxCell>
                <mxCell id="I6yM09CKQB9qnqhZAWwM-36" value="" style="group" parent="mJ60ytqAAx1X_pMdLTKa-1" vertex="1" connectable="0">
                    <mxGeometry x="510" y="160" width="100" height="560" as="geometry"/>
                </mxCell>
                <mxCell id="I6yM09CKQB9qnqhZAWwM-38" value="[Model]" style="rounded=0;whiteSpace=wrap;html=1;strokeColor=#82B366;fillColor=#D5E8D4;" parent="I6yM09CKQB9qnqhZAWwM-36" vertex="1">
                    <mxGeometry y="440" width="100" height="40" as="geometry"/>
                </mxCell>
                <mxCell id="I6yM09CKQB9qnqhZAWwM-40" value="" style="endArrow=none;html=1;rounded=0;entryX=0.5;entryY=1;entryDx=0;entryDy=0;exitX=0.5;exitY=0;exitDx=0;exitDy=0;strokeColor=#82B366;dashed=1;" parent="I6yM09CKQB9qnqhZAWwM-36" source="I6yM09CKQB9qnqhZAWwM-38" target="I6yM09CKQB9qnqhZAWwM-41" edge="1">
                    <mxGeometry width="50" height="50" relative="1" as="geometry">
                        <mxPoint x="50" y="520" as="sourcePoint"/>
                        <mxPoint x="50" y="460" as="targetPoint"/>
                    </mxGeometry>
                </mxCell>
                <mxCell id="I6yM09CKQB9qnqhZAWwM-41" value="&lt;span style=&quot;color: rgba(237, 237, 237, 0); font-family: monospace; font-size: 0px; text-align: start;&quot;&gt;%3CmxGraphModel%3E%3Croot%3E%3CmxCell%20id%3D%220%22%2F%3E%3CmxCell%20id%3D%221%22%20parent%3D%220%22%2F%3E%3CmxCell%20id%3D%222%22%20value%3D%22%5Bmessage%5D%22%20style%3D%22html%3D1%3BverticalAlign%3Dbottom%3BendArrow%3Dblock%3Brounded%3D0%3BexitX%3D0.983%3BexitY%3D0.126%3BexitDx%3D0%3BexitDy%3D0%3BexitPerimeter%3D0%3B%22%20edge%3D%221%22%20parent%3D%221%22%3E%3CmxGeometry%20x%3D%220.0009%22%20relative%3D%221%22%20as%3D%22geometry%22%3E%3CmxPoint%20x%3D%22325%22%20y%3D%22240%22%20as%3D%22sourcePoint%22%2F%3E%3CmxPoint%20x%3D%22475%22%20y%3D%22240%22%20as%3D%22targetPoint%22%2F%3E%3CmxPoint%20as%3D%22offset%22%2F%3E%3C%2FmxGeometry%3E%3C%2FmxCell%3E%3C%2Froot%3E%3C%2FmxGraphModel%3E&lt;/span&gt;" style="html=1;points=[];perimeter=orthogonalPerimeter;fillColor=#D5E8D4;strokeColor=#82B366;" parent="I6yM09CKQB9qnqhZAWwM-36" vertex="1">
                    <mxGeometry x="45" y="160" width="10" height="160" as="geometry"/>
                </mxCell>
                <mxCell id="I6yM09CKQB9qnqhZAWwM-21" value="[Actor]" style="shape=umlActor;verticalLabelPosition=middle;verticalAlign=top;html=1;outlineConnect=0;strokeColor=light-dark(#B85450,#D7817E);fillColor=light-dark(#F8CECC,#512D2B);labelPosition=center;align=center;spacingTop=36;" parent="mJ60ytqAAx1X_pMdLTKa-1" vertex="1">
                    <mxGeometry x="70" y="120" width="20" height="40" as="geometry"/>
                </mxCell>
                <mxCell id="I6yM09CKQB9qnqhZAWwM-19" value="" style="endArrow=none;html=1;rounded=0;entryX=0.5;entryY=0;entryDx=0;entryDy=0;entryPerimeter=0;dashed=1;strokeColor=#B85450;" parent="mJ60ytqAAx1X_pMdLTKa-1" source="I6yM09CKQB9qnqhZAWwM-21" target="I6yM09CKQB9qnqhZAWwM-20" edge="1">
                    <mxGeometry width="50" height="50" relative="1" as="geometry">
                        <mxPoint x="170" y="430" as="sourcePoint"/>
                        <mxPoint x="220" y="380" as="targetPoint"/>
                    </mxGeometry>
                </mxCell>
                <mxCell id="I6yM09CKQB9qnqhZAWwM-25" value="[View]" style="rounded=0;whiteSpace=wrap;html=1;strokeColor=#D79B00;fillColor=#FFE6CC;" parent="mJ60ytqAAx1X_pMdLTKa-1" vertex="1">
                    <mxGeometry x="190" y="120" width="100" height="40" as="geometry"/>
                </mxCell>
                <mxCell id="I6yM09CKQB9qnqhZAWwM-27" value="" style="endArrow=none;html=1;rounded=0;entryX=0.5;entryY=1;entryDx=0;entryDy=0;exitX=0.5;exitY=0;exitDx=0;exitDy=0;strokeColor=#D79B00;dashed=1;" parent="mJ60ytqAAx1X_pMdLTKa-1" source="I6yM09CKQB9qnqhZAWwM-29" target="I6yM09CKQB9qnqhZAWwM-25" edge="1">
                    <mxGeometry width="50" height="50" relative="1" as="geometry">
                        <mxPoint x="230" y="660" as="sourcePoint"/>
                        <mxPoint x="280" y="610" as="targetPoint"/>
                    </mxGeometry>
                </mxCell>
                <mxCell id="I6yM09CKQB9qnqhZAWwM-31" value="[Controller]" style="rounded=0;whiteSpace=wrap;html=1;strokeColor=#6C8EBF;fillColor=#DAE8FC;" parent="mJ60ytqAAx1X_pMdLTKa-1" vertex="1">
                    <mxGeometry x="350" y="120" width="100" height="40" as="geometry"/>
                </mxCell>
                <mxCell id="I6yM09CKQB9qnqhZAWwM-33" value="" style="endArrow=none;html=1;rounded=0;entryX=0.5;entryY=1;entryDx=0;entryDy=0;exitX=0.5;exitY=0;exitDx=0;exitDy=0;strokeColor=#6C8EBF;dashed=1;" parent="mJ60ytqAAx1X_pMdLTKa-1" source="I6yM09CKQB9qnqhZAWwM-35" target="I6yM09CKQB9qnqhZAWwM-31" edge="1">
                    <mxGeometry width="50" height="50" relative="1" as="geometry">
                        <mxPoint x="390" y="660" as="sourcePoint"/>
                        <mxPoint x="440" y="610" as="targetPoint"/>
                    </mxGeometry>
                </mxCell>
                <mxCell id="I6yM09CKQB9qnqhZAWwM-37" value="[Model]" style="rounded=0;whiteSpace=wrap;html=1;strokeColor=#82B366;fillColor=#D5E8D4;" parent="mJ60ytqAAx1X_pMdLTKa-1" vertex="1">
                    <mxGeometry x="510" y="120" width="100" height="40" as="geometry"/>
                </mxCell>
                <mxCell id="I6yM09CKQB9qnqhZAWwM-39" value="" style="endArrow=none;html=1;rounded=0;entryX=0.5;entryY=1;entryDx=0;entryDy=0;exitX=0.5;exitY=0;exitDx=0;exitDy=0;strokeColor=#82B366;dashed=1;" parent="mJ60ytqAAx1X_pMdLTKa-1" source="I6yM09CKQB9qnqhZAWwM-41" target="I6yM09CKQB9qnqhZAWwM-37" edge="1">
                    <mxGeometry width="50" height="50" relative="1" as="geometry">
                        <mxPoint x="550" y="660" as="sourcePoint"/>
                        <mxPoint x="600" y="610" as="targetPoint"/>
                    </mxGeometry>
                </mxCell>
                <mxCell id="I6yM09CKQB9qnqhZAWwM-6" value="Database" style="shape=cylinder3;whiteSpace=wrap;html=1;boundedLbl=1;backgroundOutline=1;size=15;strokeColor=#9673A6;fillColor=#E1D5E7;verticalAlign=middle;spacingTop=36;" parent="mJ60ytqAAx1X_pMdLTKa-1" vertex="1">
                    <mxGeometry x="700" y="110" width="37.5" height="50" as="geometry"/>
                </mxCell>
                <mxCell id="I6yM09CKQB9qnqhZAWwM-8" value="" style="endArrow=none;html=1;rounded=0;entryX=0.5;entryY=1;entryDx=0;entryDy=0;entryPerimeter=0;exitX=0.5;exitY=0;exitDx=0;exitDy=0;exitPerimeter=0;dashed=1;strokeColor=#9673A6;" parent="mJ60ytqAAx1X_pMdLTKa-1" source="I6yM09CKQB9qnqhZAWwM-7" target="I6yM09CKQB9qnqhZAWwM-6" edge="1">
                    <mxGeometry width="50" height="50" relative="1" as="geometry">
                        <mxPoint x="508.75" y="350" as="sourcePoint"/>
                        <mxPoint x="558.75" y="300" as="targetPoint"/>
                    </mxGeometry>
                </mxCell>
            </root>
        </mxGraphModel>
    </diagram>
    <diagram id="xSp2ibxARpuy158hYc2s" name="Full Loop">
        <mxGraphModel dx="579" dy="402" grid="1" gridSize="10" guides="1" tooltips="1" connect="1" arrows="1" fold="1" page="1" pageScale="1" pageWidth="850" pageHeight="1100" math="0" shadow="0">
            <root>
                <mxCell id="0"/>
                <mxCell id="1" parent="0"/>
                <mxCell id="3RHOjwI_AuNJJFDP4YmF-1" value="[use case name]" style="shape=umlFrame;whiteSpace=wrap;html=1;width=120;height=30;boundedLbl=1;verticalAlign=middle;align=left;spacingLeft=5;fillColor=#f5f5f5;fontColor=#333333;strokeColor=#666666;" parent="1" vertex="1">
                    <mxGeometry x="40" y="40" width="760" height="640" as="geometry"/>
                </mxCell>
                <mxCell id="3RHOjwI_AuNJJFDP4YmF-2" value="[message]" style="html=1;verticalAlign=bottom;endArrow=block;rounded=0;exitX=1.003;exitY=0.128;exitDx=0;exitDy=0;exitPerimeter=0;entryX=0.003;entryY=-0.002;entryDx=0;entryDy=0;entryPerimeter=0;" parent="1" source="3RHOjwI_AuNJJFDP4YmF-30" target="3RHOjwI_AuNJJFDP4YmF-36" edge="1">
                    <mxGeometry x="0.0009" relative="1" as="geometry">
                        <mxPoint x="244.82999999999993" y="240.31999999999994" as="sourcePoint"/>
                        <mxPoint x="395" y="240.31999999999994" as="targetPoint"/>
                        <mxPoint as="offset"/>
                    </mxGeometry>
                </mxCell>
                <mxCell id="3RHOjwI_AuNJJFDP4YmF-3" style="edgeStyle=none;rounded=0;orthogonalLoop=1;jettySize=auto;html=1;endArrow=open;endFill=0;dashed=1;exitX=-0.015;exitY=1;exitDx=0;exitDy=0;exitPerimeter=0;entryX=0.495;entryY=1.001;entryDx=0;entryDy=0;entryPerimeter=0;" parent="1" source="3RHOjwI_AuNJJFDP4YmF-30" target="3RHOjwI_AuNJJFDP4YmF-23" edge="1">
                    <mxGeometry relative="1" as="geometry">
                        <Array as="points">
                            <mxPoint x="150" y="520"/>
                        </Array>
                        <mxPoint x="80" y="520" as="targetPoint"/>
                        <mxPoint x="235.11000000000013" y="519.3599999999999" as="sourcePoint"/>
                    </mxGeometry>
                </mxCell>
                <mxCell id="3RHOjwI_AuNJJFDP4YmF-4" value="[message]" style="edgeLabel;html=1;align=center;verticalAlign=bottom;resizable=0;points=[];" parent="3RHOjwI_AuNJJFDP4YmF-3" vertex="1" connectable="0">
                    <mxGeometry x="-0.0596" y="-1" relative="1" as="geometry">
                        <mxPoint as="offset"/>
                    </mxGeometry>
                </mxCell>
                <mxCell id="3RHOjwI_AuNJJFDP4YmF-5" value="[message]" style="html=1;verticalAlign=bottom;endArrow=block;rounded=0;exitX=0.994;exitY=0.166;exitDx=0;exitDy=0;exitPerimeter=0;entryX=0.006;entryY=0;entryDx=0;entryDy=0;entryPerimeter=0;" parent="1" source="3RHOjwI_AuNJJFDP4YmF-36" target="3RHOjwI_AuNJJFDP4YmF-42" edge="1">
                    <mxGeometry x="0.0009" relative="1" as="geometry">
                        <mxPoint x="404.8699999999999" y="279.6" as="sourcePoint"/>
                        <mxPoint x="555.0899999999999" y="280.15999999999997" as="targetPoint"/>
                        <mxPoint as="offset"/>
                    </mxGeometry>
                </mxCell>
                <mxCell id="3RHOjwI_AuNJJFDP4YmF-6" value="" style="group;verticalAlign=top;spacingTop=36;" parent="1" vertex="1" connectable="0">
                    <mxGeometry x="700" y="110" width="39.25" height="500" as="geometry"/>
                </mxCell>
                <mxCell id="3RHOjwI_AuNJJFDP4YmF-7" value="Database" style="shape=cylinder3;whiteSpace=wrap;html=1;boundedLbl=1;backgroundOutline=1;size=15;strokeColor=#9673A6;fillColor=#E1D5E7;verticalAlign=middle;spacingTop=36;" parent="3RHOjwI_AuNJJFDP4YmF-6" vertex="1">
                    <mxGeometry width="37.5" height="50" as="geometry"/>
                </mxCell>
                <mxCell id="3RHOjwI_AuNJJFDP4YmF-8" value="Database" style="shape=cylinder3;whiteSpace=wrap;html=1;boundedLbl=1;backgroundOutline=1;size=15;strokeColor=#9673A6;fillColor=#E1D5E7;spacingTop=36;" parent="3RHOjwI_AuNJJFDP4YmF-6" vertex="1">
                    <mxGeometry x="1.75" y="440" width="37.5" height="50" as="geometry"/>
                </mxCell>
                <mxCell id="3RHOjwI_AuNJJFDP4YmF-9" value="" style="endArrow=none;html=1;rounded=0;entryX=0.5;entryY=1;entryDx=0;entryDy=0;entryPerimeter=0;exitX=0.5;exitY=0;exitDx=0;exitDy=0;exitPerimeter=0;dashed=1;strokeColor=#9673A6;" parent="3RHOjwI_AuNJJFDP4YmF-6" source="3RHOjwI_AuNJJFDP4YmF-8" target="3RHOjwI_AuNJJFDP4YmF-7" edge="1">
                    <mxGeometry width="50" height="50" relative="1" as="geometry">
                        <mxPoint x="-191.25" y="200" as="sourcePoint"/>
                        <mxPoint x="-141.25" y="150" as="targetPoint"/>
                    </mxGeometry>
                </mxCell>
                <mxCell id="3RHOjwI_AuNJJFDP4YmF-10" value="" style="html=1;points=[];perimeter=orthogonalPerimeter;fillColor=#e1d5e7;strokeColor=#9673a6;" parent="3RHOjwI_AuNJJFDP4YmF-6" vertex="1">
                    <mxGeometry x="13.75" y="210" width="10" height="80" as="geometry"/>
                </mxCell>
                <mxCell id="3RHOjwI_AuNJJFDP4YmF-11" value="[message]" style="html=1;verticalAlign=bottom;endArrow=block;rounded=0;exitX=0.992;exitY=0.255;exitDx=0;exitDy=0;exitPerimeter=0;entryX=-0.062;entryY=0.005;entryDx=0;entryDy=0;entryPerimeter=0;" parent="1" source="3RHOjwI_AuNJJFDP4YmF-42" target="3RHOjwI_AuNJJFDP4YmF-10" edge="1">
                    <mxGeometry x="0.0009" relative="1" as="geometry">
                        <mxPoint x="565.4000000000001" y="320.48" as="sourcePoint"/>
                        <mxPoint x="710" y="320" as="targetPoint"/>
                        <mxPoint as="offset"/>
                    </mxGeometry>
                </mxCell>
                <mxCell id="3RHOjwI_AuNJJFDP4YmF-12" style="rounded=0;orthogonalLoop=1;jettySize=auto;html=1;endArrow=open;endFill=0;dashed=1;exitX=-0.002;exitY=1.001;exitDx=0;exitDy=0;exitPerimeter=0;entryX=0.998;entryY=0.876;entryDx=0;entryDy=0;entryPerimeter=0;" parent="1" source="3RHOjwI_AuNJJFDP4YmF-36" target="3RHOjwI_AuNJJFDP4YmF-30" edge="1">
                    <mxGeometry relative="1" as="geometry">
                        <mxPoint x="245.05999999999995" y="480.31999999999994" as="targetPoint"/>
                        <mxPoint x="395.1199999999999" y="479.52" as="sourcePoint"/>
                    </mxGeometry>
                </mxCell>
                <mxCell id="3RHOjwI_AuNJJFDP4YmF-13" value="[message]" style="edgeLabel;html=1;align=center;verticalAlign=bottom;resizable=0;points=[];" parent="3RHOjwI_AuNJJFDP4YmF-12" vertex="1" connectable="0">
                    <mxGeometry x="-0.0596" y="-1" relative="1" as="geometry">
                        <mxPoint as="offset"/>
                    </mxGeometry>
                </mxCell>
                <mxCell id="3RHOjwI_AuNJJFDP4YmF-14" style="rounded=0;orthogonalLoop=1;jettySize=auto;html=1;endArrow=open;endFill=0;dashed=1;exitX=0;exitY=1.001;exitDx=0;exitDy=0;exitPerimeter=0;entryX=1.005;entryY=0.834;entryDx=0;entryDy=0;entryPerimeter=0;" parent="1" source="3RHOjwI_AuNJJFDP4YmF-42" target="3RHOjwI_AuNJJFDP4YmF-36" edge="1">
                    <mxGeometry relative="1" as="geometry">
                        <mxPoint x="404.96000000000004" y="440.1600000000001" as="targetPoint"/>
                        <mxPoint x="554.96" y="440" as="sourcePoint"/>
                    </mxGeometry>
                </mxCell>
                <mxCell id="3RHOjwI_AuNJJFDP4YmF-15" value="[message]" style="edgeLabel;html=1;align=center;verticalAlign=bottom;resizable=0;points=[];" parent="3RHOjwI_AuNJJFDP4YmF-14" vertex="1" connectable="0">
                    <mxGeometry x="-0.0596" y="-1" relative="1" as="geometry">
                        <mxPoint as="offset"/>
                    </mxGeometry>
                </mxCell>
                <mxCell id="3RHOjwI_AuNJJFDP4YmF-16" style="rounded=0;orthogonalLoop=1;jettySize=auto;html=1;endArrow=open;endFill=0;dashed=1;exitX=-0.037;exitY=0.998;exitDx=0;exitDy=0;exitPerimeter=0;entryX=1.004;entryY=0.749;entryDx=0;entryDy=0;entryPerimeter=0;" parent="1" source="3RHOjwI_AuNJJFDP4YmF-10" target="3RHOjwI_AuNJJFDP4YmF-42" edge="1">
                    <mxGeometry relative="1" as="geometry">
                        <mxPoint x="564.8499999999999" y="400" as="targetPoint"/>
                        <mxPoint x="715" y="400" as="sourcePoint"/>
                    </mxGeometry>
                </mxCell>
                <mxCell id="3RHOjwI_AuNJJFDP4YmF-17" value="[message]" style="edgeLabel;html=1;align=center;verticalAlign=bottom;resizable=0;points=[];" parent="3RHOjwI_AuNJJFDP4YmF-16" vertex="1" connectable="0">
                    <mxGeometry x="-0.0596" y="-1" relative="1" as="geometry">
                        <mxPoint as="offset"/>
                    </mxGeometry>
                </mxCell>
                <mxCell id="3RHOjwI_AuNJJFDP4YmF-18" value="" style="group" parent="1" vertex="1" connectable="0">
                    <mxGeometry x="70" y="110" width="20" height="480" as="geometry"/>
                </mxCell>
                <mxCell id="3RHOjwI_AuNJJFDP4YmF-19" value="" style="group" parent="3RHOjwI_AuNJJFDP4YmF-18" vertex="1" connectable="0">
                    <mxGeometry y="10" width="20" height="480" as="geometry"/>
                </mxCell>
                <mxCell id="3RHOjwI_AuNJJFDP4YmF-20" value="" style="endArrow=none;html=1;rounded=0;entryX=0.5;entryY=0;entryDx=0;entryDy=0;entryPerimeter=0;dashed=1;strokeColor=#B85450;" parent="3RHOjwI_AuNJJFDP4YmF-19" source="3RHOjwI_AuNJJFDP4YmF-22" target="3RHOjwI_AuNJJFDP4YmF-21" edge="1">
                    <mxGeometry width="50" height="50" relative="1" as="geometry">
                        <mxPoint x="100" y="270" as="sourcePoint"/>
                        <mxPoint x="150" y="220" as="targetPoint"/>
                    </mxGeometry>
                </mxCell>
                <mxCell id="3RHOjwI_AuNJJFDP4YmF-21" value="[Actor]" style="shape=umlActor;verticalLabelPosition=middle;verticalAlign=top;html=1;outlineConnect=0;strokeColor=light-dark(#B85450,#D7817E);fillColor=light-dark(#F8CECC,#512D2B);labelPosition=center;align=center;spacingTop=36;" parent="3RHOjwI_AuNJJFDP4YmF-19" vertex="1">
                    <mxGeometry y="440" width="20" height="40" as="geometry"/>
                </mxCell>
                <mxCell id="3RHOjwI_AuNJJFDP4YmF-22" value="[Actor]" style="shape=umlActor;verticalLabelPosition=middle;verticalAlign=top;html=1;outlineConnect=0;strokeColor=light-dark(#B85450,#D7817E);fillColor=light-dark(#F8CECC,#512D2B);labelPosition=center;align=center;spacingTop=36;" parent="3RHOjwI_AuNJJFDP4YmF-19" vertex="1">
                    <mxGeometry width="20" height="40" as="geometry"/>
                </mxCell>
                <mxCell id="3RHOjwI_AuNJJFDP4YmF-23" value="&lt;span style=&quot;color: rgba(0, 0, 0, 0); font-family: monospace; font-size: 0px; text-align: start;&quot;&gt;%3CmxGraphModel%3E%3Croot%3E%3CmxCell%20id%3D%220%22%2F%3E%3CmxCell%20id%3D%221%22%20parent%3D%220%22%2F%3E%3CmxCell%20id%3D%222%22%20value%3D%22%5Bmessage%5D%22%20style%3D%22html%3D1%3BverticalAlign%3Dbottom%3BendArrow%3Dblock%3Brounded%3D0%3BexitX%3D0.983%3BexitY%3D0.126%3BexitDx%3D0%3BexitDy%3D0%3BexitPerimeter%3D0%3B%22%20edge%3D%221%22%20parent%3D%221%22%3E%3CmxGeometry%20x%3D%220.0009%22%20relative%3D%221%22%20as%3D%22geometry%22%3E%3CmxPoint%20x%3D%22325%22%20y%3D%22240%22%20as%3D%22sourcePoint%22%2F%3E%3CmxPoint%20x%3D%22475%22%20y%3D%22240%22%20as%3D%22targetPoint%22%2F%3E%3CmxPoint%20as%3D%22offset%22%2F%3E%3C%2FmxGeometry%3E%3C%2FmxCell%3E%3C%2Froot%3E%3C%2FmxGraphModel%3E&lt;/span&gt;" style="html=1;points=[];perimeter=orthogonalPerimeter;fillColor=#FFE6CC00;strokeColor=#D79B0000;" parent="3RHOjwI_AuNJJFDP4YmF-19" vertex="1">
                    <mxGeometry x="5" y="80" width="10" height="320" as="geometry"/>
                </mxCell>
                <mxCell id="3RHOjwI_AuNJJFDP4YmF-24" value="[message]" style="html=1;verticalAlign=bottom;endArrow=block;rounded=0;entryX=0.018;entryY=0;entryDx=0;entryDy=0;entryPerimeter=0;exitX=0.486;exitY=0.001;exitDx=0;exitDy=0;exitPerimeter=0;" parent="1" source="3RHOjwI_AuNJJFDP4YmF-23" target="3RHOjwI_AuNJJFDP4YmF-30" edge="1">
                    <mxGeometry x="0.0009" relative="1" as="geometry">
                        <mxPoint x="80" y="200" as="sourcePoint"/>
                        <mxPoint x="235.42000000000007" y="199.3599999999999" as="targetPoint"/>
                        <mxPoint as="offset"/>
                    </mxGeometry>
                </mxCell>
                <mxCell id="3RHOjwI_AuNJJFDP4YmF-25" value="" style="group" parent="1" vertex="1" connectable="0">
                    <mxGeometry x="190" y="120" width="100" height="560" as="geometry"/>
                </mxCell>
                <mxCell id="3RHOjwI_AuNJJFDP4YmF-26" value="[View]" style="rounded=0;whiteSpace=wrap;html=1;strokeColor=#D79B00;fillColor=#FFE6CC;" parent="3RHOjwI_AuNJJFDP4YmF-25" vertex="1">
                    <mxGeometry width="100" height="40" as="geometry"/>
                </mxCell>
                <mxCell id="3RHOjwI_AuNJJFDP4YmF-27" value="[View]" style="rounded=0;whiteSpace=wrap;html=1;strokeColor=#D79B00;fillColor=#FFE6CC;" parent="3RHOjwI_AuNJJFDP4YmF-25" vertex="1">
                    <mxGeometry y="440" width="100" height="40" as="geometry"/>
                </mxCell>
                <mxCell id="3RHOjwI_AuNJJFDP4YmF-28" value="" style="endArrow=none;html=1;rounded=0;entryX=0.5;entryY=1;entryDx=0;entryDy=0;exitX=0.5;exitY=0;exitDx=0;exitDy=0;strokeColor=#D79B00;dashed=1;" parent="3RHOjwI_AuNJJFDP4YmF-25" source="3RHOjwI_AuNJJFDP4YmF-30" target="3RHOjwI_AuNJJFDP4YmF-26" edge="1">
                    <mxGeometry width="50" height="50" relative="1" as="geometry">
                        <mxPoint x="40" y="500" as="sourcePoint"/>
                        <mxPoint x="90" y="450" as="targetPoint"/>
                    </mxGeometry>
                </mxCell>
                <mxCell id="3RHOjwI_AuNJJFDP4YmF-29" value="" style="endArrow=none;html=1;rounded=0;entryX=0.5;entryY=1;entryDx=0;entryDy=0;exitX=0.5;exitY=0;exitDx=0;exitDy=0;strokeColor=#D79B00;dashed=1;" parent="3RHOjwI_AuNJJFDP4YmF-25" source="3RHOjwI_AuNJJFDP4YmF-27" target="3RHOjwI_AuNJJFDP4YmF-30" edge="1">
                    <mxGeometry width="50" height="50" relative="1" as="geometry">
                        <mxPoint x="50" y="520" as="sourcePoint"/>
                        <mxPoint x="50" y="460" as="targetPoint"/>
                    </mxGeometry>
                </mxCell>
                <mxCell id="3RHOjwI_AuNJJFDP4YmF-30" value="&lt;span style=&quot;color: rgba(237, 237, 237, 0); font-family: monospace; font-size: 0px; text-align: start;&quot;&gt;%3CmxGraphModel%3E%3Croot%3E%3CmxCell%20id%3D%220%22%2F%3E%3CmxCell%20id%3D%221%22%20parent%3D%220%22%2F%3E%3CmxCell%20id%3D%222%22%20value%3D%22%5Bmessage%5D%22%20style%3D%22html%3D1%3BverticalAlign%3Dbottom%3BendArrow%3Dblock%3Brounded%3D0%3BexitX%3D0.983%3BexitY%3D0.126%3BexitDx%3D0%3BexitDy%3D0%3BexitPerimeter%3D0%3B%22%20edge%3D%221%22%20parent%3D%221%22%3E%3CmxGeometry%20x%3D%220.0009%22%20relative%3D%221%22%20as%3D%22geometry%22%3E%3CmxPoint%20x%3D%22325%22%20y%3D%22240%22%20as%3D%22sourcePoint%22%2F%3E%3CmxPoint%20x%3D%22475%22%20y%3D%22240%22%20as%3D%22targetPoint%22%2F%3E%3CmxPoint%20as%3D%22offset%22%2F%3E%3C%2FmxGeometry%3E%3C%2FmxCell%3E%3C%2Froot%3E%3C%2FmxGraphModel%3E&lt;/span&gt;" style="html=1;points=[];perimeter=orthogonalPerimeter;fillColor=#ffe6cc;strokeColor=#d79b00;" parent="3RHOjwI_AuNJJFDP4YmF-25" vertex="1">
                    <mxGeometry x="45" y="80" width="10" height="320" as="geometry"/>
                </mxCell>
                <mxCell id="3RHOjwI_AuNJJFDP4YmF-31" value="" style="group" parent="1" vertex="1" connectable="0">
                    <mxGeometry x="350" y="120" width="100" height="560" as="geometry"/>
                </mxCell>
                <mxCell id="3RHOjwI_AuNJJFDP4YmF-32" value="[Controller]" style="rounded=0;whiteSpace=wrap;html=1;strokeColor=#6C8EBF;fillColor=#DAE8FC;" parent="3RHOjwI_AuNJJFDP4YmF-31" vertex="1">
                    <mxGeometry width="100" height="40" as="geometry"/>
                </mxCell>
                <mxCell id="3RHOjwI_AuNJJFDP4YmF-33" value="[Controller]" style="rounded=0;whiteSpace=wrap;html=1;strokeColor=#6C8EBF;fillColor=#DAE8FC;" parent="3RHOjwI_AuNJJFDP4YmF-31" vertex="1">
                    <mxGeometry y="440" width="100" height="40" as="geometry"/>
                </mxCell>
                <mxCell id="3RHOjwI_AuNJJFDP4YmF-34" value="" style="endArrow=none;html=1;rounded=0;entryX=0.5;entryY=1;entryDx=0;entryDy=0;exitX=0.5;exitY=0;exitDx=0;exitDy=0;strokeColor=#6C8EBF;dashed=1;" parent="3RHOjwI_AuNJJFDP4YmF-31" source="3RHOjwI_AuNJJFDP4YmF-36" target="3RHOjwI_AuNJJFDP4YmF-32" edge="1">
                    <mxGeometry width="50" height="50" relative="1" as="geometry">
                        <mxPoint x="40" y="500" as="sourcePoint"/>
                        <mxPoint x="90" y="450" as="targetPoint"/>
                    </mxGeometry>
                </mxCell>
                <mxCell id="3RHOjwI_AuNJJFDP4YmF-35" value="" style="endArrow=none;html=1;rounded=0;entryX=0.5;entryY=1;entryDx=0;entryDy=0;exitX=0.5;exitY=0;exitDx=0;exitDy=0;strokeColor=#6C8EBF;dashed=1;" parent="3RHOjwI_AuNJJFDP4YmF-31" source="3RHOjwI_AuNJJFDP4YmF-33" target="3RHOjwI_AuNJJFDP4YmF-36" edge="1">
                    <mxGeometry width="50" height="50" relative="1" as="geometry">
                        <mxPoint x="50" y="520" as="sourcePoint"/>
                        <mxPoint x="50" y="460" as="targetPoint"/>
                    </mxGeometry>
                </mxCell>
                <mxCell id="3RHOjwI_AuNJJFDP4YmF-36" value="&lt;span style=&quot;color: rgba(237, 237, 237, 0); font-family: monospace; font-size: 0px; text-align: start;&quot;&gt;%3CmxGraphModel%3E%3Croot%3E%3CmxCell%20id%3D%220%22%2F%3E%3CmxCell%20id%3D%221%22%20parent%3D%220%22%2F%3E%3CmxCell%20id%3D%222%22%20value%3D%22%5Bmessage%5D%22%20style%3D%22html%3D1%3BverticalAlign%3Dbottom%3BendArrow%3Dblock%3Brounded%3D0%3BexitX%3D0.983%3BexitY%3D0.126%3BexitDx%3D0%3BexitDy%3D0%3BexitPerimeter%3D0%3B%22%20edge%3D%221%22%20parent%3D%221%22%3E%3CmxGeometry%20x%3D%220.0009%22%20relative%3D%221%22%20as%3D%22geometry%22%3E%3CmxPoint%20x%3D%22325%22%20y%3D%22240%22%20as%3D%22sourcePoint%22%2F%3E%3CmxPoint%20x%3D%22475%22%20y%3D%22240%22%20as%3D%22targetPoint%22%2F%3E%3CmxPoint%20as%3D%22offset%22%2F%3E%3C%2FmxGeometry%3E%3C%2FmxCell%3E%3C%2Froot%3E%3C%2FmxGraphModel%3E&lt;/span&gt;" style="html=1;points=[];perimeter=orthogonalPerimeter;fillColor=#DAE8FC;strokeColor=#6C8EBF;" parent="3RHOjwI_AuNJJFDP4YmF-31" vertex="1">
                    <mxGeometry x="45" y="120" width="10" height="240" as="geometry"/>
                </mxCell>
                <mxCell id="3RHOjwI_AuNJJFDP4YmF-37" value="" style="group" parent="1" vertex="1" connectable="0">
                    <mxGeometry x="510" y="120" width="100" height="560" as="geometry"/>
                </mxCell>
                <mxCell id="3RHOjwI_AuNJJFDP4YmF-38" value="[Model]" style="rounded=0;whiteSpace=wrap;html=1;strokeColor=#82B366;fillColor=#D5E8D4;" parent="3RHOjwI_AuNJJFDP4YmF-37" vertex="1">
                    <mxGeometry width="100" height="40" as="geometry"/>
                </mxCell>
                <mxCell id="3RHOjwI_AuNJJFDP4YmF-39" value="[Model]" style="rounded=0;whiteSpace=wrap;html=1;strokeColor=#82B366;fillColor=#D5E8D4;" parent="3RHOjwI_AuNJJFDP4YmF-37" vertex="1">
                    <mxGeometry y="440" width="100" height="40" as="geometry"/>
                </mxCell>
                <mxCell id="3RHOjwI_AuNJJFDP4YmF-40" value="" style="endArrow=none;html=1;rounded=0;entryX=0.5;entryY=1;entryDx=0;entryDy=0;exitX=0.5;exitY=0;exitDx=0;exitDy=0;strokeColor=#82B366;dashed=1;" parent="3RHOjwI_AuNJJFDP4YmF-37" source="3RHOjwI_AuNJJFDP4YmF-42" target="3RHOjwI_AuNJJFDP4YmF-38" edge="1">
                    <mxGeometry width="50" height="50" relative="1" as="geometry">
                        <mxPoint x="40" y="500" as="sourcePoint"/>
                        <mxPoint x="90" y="450" as="targetPoint"/>
                    </mxGeometry>
                </mxCell>
                <mxCell id="3RHOjwI_AuNJJFDP4YmF-41" value="" style="endArrow=none;html=1;rounded=0;entryX=0.5;entryY=1;entryDx=0;entryDy=0;exitX=0.5;exitY=0;exitDx=0;exitDy=0;strokeColor=#82B366;dashed=1;" parent="3RHOjwI_AuNJJFDP4YmF-37" source="3RHOjwI_AuNJJFDP4YmF-39" target="3RHOjwI_AuNJJFDP4YmF-42" edge="1">
                    <mxGeometry width="50" height="50" relative="1" as="geometry">
                        <mxPoint x="50" y="520" as="sourcePoint"/>
                        <mxPoint x="50" y="460" as="targetPoint"/>
                    </mxGeometry>
                </mxCell>
                <mxCell id="3RHOjwI_AuNJJFDP4YmF-42" value="&lt;span style=&quot;color: rgba(237, 237, 237, 0); font-family: monospace; font-size: 0px; text-align: start;&quot;&gt;%3CmxGraphModel%3E%3Croot%3E%3CmxCell%20id%3D%220%22%2F%3E%3CmxCell%20id%3D%221%22%20parent%3D%220%22%2F%3E%3CmxCell%20id%3D%222%22%20value%3D%22%5Bmessage%5D%22%20style%3D%22html%3D1%3BverticalAlign%3Dbottom%3BendArrow%3Dblock%3Brounded%3D0%3BexitX%3D0.983%3BexitY%3D0.126%3BexitDx%3D0%3BexitDy%3D0%3BexitPerimeter%3D0%3B%22%20edge%3D%221%22%20parent%3D%221%22%3E%3CmxGeometry%20x%3D%220.0009%22%20relative%3D%221%22%20as%3D%22geometry%22%3E%3CmxPoint%20x%3D%22325%22%20y%3D%22240%22%20as%3D%22sourcePoint%22%2F%3E%3CmxPoint%20x%3D%22475%22%20y%3D%22240%22%20as%3D%22targetPoint%22%2F%3E%3CmxPoint%20as%3D%22offset%22%2F%3E%3C%2FmxGeometry%3E%3C%2FmxCell%3E%3C%2Froot%3E%3C%2FmxGraphModel%3E&lt;/span&gt;" style="html=1;points=[];perimeter=orthogonalPerimeter;fillColor=#D5E8D4;strokeColor=#82B366;" parent="3RHOjwI_AuNJJFDP4YmF-37" vertex="1">
                    <mxGeometry x="45" y="160" width="10" height="160" as="geometry"/>
                </mxCell>
                <mxCell id="AwPz5ft7MIZHVtDq2xSh-2" value="" style="group" parent="1" vertex="1" connectable="0">
                    <mxGeometry x="450" y="300" width="310" height="120" as="geometry"/>
                </mxCell>
                <mxCell id="cefo_y4Jo6Sp-cwEeq3N-1" value="loop" style="shape=umlFrame;whiteSpace=wrap;html=1;fillColor=#F5F5F5;strokeColor=#666666;" parent="AwPz5ft7MIZHVtDq2xSh-2" vertex="1">
                    <mxGeometry width="310.0000000000001" height="120" as="geometry"/>
                </mxCell>
                <mxCell id="cefo_y4Jo6Sp-cwEeq3N-2" value="&lt;span style=&quot;font-size: 11px; background-color: rgb(255, 255, 255);&quot;&gt;[while condition or for each item in list]&lt;/span&gt;" style="text;html=1;align=center;verticalAlign=middle;resizable=0;points=[];autosize=1;strokeColor=none;fillColor=none;" parent="AwPz5ft7MIZHVtDq2xSh-2" vertex="1">
                    <mxGeometry y="29.99736842105263" width="210" height="30" as="geometry"/>
                </mxCell>
            </root>
        </mxGraphModel>
    </diagram>
    <diagram id="Gy8YTnyEUJD4wB_BsrQp" name="if else (aka alt)">
        <mxGraphModel dx="579" dy="402" grid="1" gridSize="10" guides="1" tooltips="1" connect="1" arrows="1" fold="1" page="1" pageScale="1" pageWidth="850" pageHeight="1100" math="0" shadow="0">
            <root>
                <mxCell id="0"/>
                <mxCell id="1" parent="0"/>
                <mxCell id="zPcSEfWeuCOlfE6iRi16-1" value="[use case name]" style="shape=umlFrame;whiteSpace=wrap;html=1;width=120;height=30;boundedLbl=1;verticalAlign=middle;align=left;spacingLeft=5;fillColor=#f5f5f5;fontColor=#333333;strokeColor=#666666;" parent="1" vertex="1">
                    <mxGeometry x="40" y="40" width="760" height="600" as="geometry"/>
                </mxCell>
                <mxCell id="zPcSEfWeuCOlfE6iRi16-2" value="[message]" style="html=1;verticalAlign=bottom;endArrow=block;rounded=0;exitX=1.003;exitY=0.128;exitDx=0;exitDy=0;exitPerimeter=0;entryX=0.003;entryY=-0.002;entryDx=0;entryDy=0;entryPerimeter=0;" parent="1" source="zPcSEfWeuCOlfE6iRi16-30" target="zPcSEfWeuCOlfE6iRi16-36" edge="1">
                    <mxGeometry x="0.0009" relative="1" as="geometry">
                        <mxPoint x="244.82999999999993" y="240.31999999999994" as="sourcePoint"/>
                        <mxPoint x="395" y="240.31999999999994" as="targetPoint"/>
                        <mxPoint as="offset"/>
                    </mxGeometry>
                </mxCell>
                <mxCell id="zPcSEfWeuCOlfE6iRi16-3" style="edgeStyle=none;rounded=0;orthogonalLoop=1;jettySize=auto;html=1;endArrow=open;endFill=0;dashed=1;exitX=-0.015;exitY=1;exitDx=0;exitDy=0;exitPerimeter=0;entryX=0.495;entryY=1.001;entryDx=0;entryDy=0;entryPerimeter=0;" parent="1" source="zPcSEfWeuCOlfE6iRi16-30" target="zPcSEfWeuCOlfE6iRi16-23" edge="1">
                    <mxGeometry relative="1" as="geometry">
                        <Array as="points">
                            <mxPoint x="150" y="520"/>
                        </Array>
                        <mxPoint x="80" y="520" as="targetPoint"/>
                        <mxPoint x="235.11000000000013" y="519.3599999999999" as="sourcePoint"/>
                    </mxGeometry>
                </mxCell>
                <mxCell id="zPcSEfWeuCOlfE6iRi16-4" value="[message]" style="edgeLabel;html=1;align=center;verticalAlign=bottom;resizable=0;points=[];" parent="zPcSEfWeuCOlfE6iRi16-3" vertex="1" connectable="0">
                    <mxGeometry x="-0.0596" y="-1" relative="1" as="geometry">
                        <mxPoint as="offset"/>
                    </mxGeometry>
                </mxCell>
                <mxCell id="zPcSEfWeuCOlfE6iRi16-5" value="[message]" style="html=1;verticalAlign=bottom;endArrow=block;rounded=0;exitX=0.994;exitY=0.166;exitDx=0;exitDy=0;exitPerimeter=0;entryX=0.006;entryY=0;entryDx=0;entryDy=0;entryPerimeter=0;" parent="1" source="zPcSEfWeuCOlfE6iRi16-36" target="zPcSEfWeuCOlfE6iRi16-42" edge="1">
                    <mxGeometry x="0.0009" relative="1" as="geometry">
                        <mxPoint x="404.8699999999999" y="279.6" as="sourcePoint"/>
                        <mxPoint x="555.0899999999999" y="280.15999999999997" as="targetPoint"/>
                        <mxPoint as="offset"/>
                    </mxGeometry>
                </mxCell>
                <mxCell id="zPcSEfWeuCOlfE6iRi16-6" value="" style="group;verticalAlign=top;spacingTop=36;" parent="1" vertex="1" connectable="0">
                    <mxGeometry x="700" y="110" width="39.25" height="500" as="geometry"/>
                </mxCell>
                <mxCell id="zPcSEfWeuCOlfE6iRi16-7" value="Database" style="shape=cylinder3;whiteSpace=wrap;html=1;boundedLbl=1;backgroundOutline=1;size=15;strokeColor=#9673A6;fillColor=#E1D5E7;verticalAlign=middle;spacingTop=36;" parent="zPcSEfWeuCOlfE6iRi16-6" vertex="1">
                    <mxGeometry width="37.5" height="50" as="geometry"/>
                </mxCell>
                <mxCell id="zPcSEfWeuCOlfE6iRi16-8" value="Database" style="shape=cylinder3;whiteSpace=wrap;html=1;boundedLbl=1;backgroundOutline=1;size=15;strokeColor=#9673A6;fillColor=#E1D5E7;spacingTop=36;" parent="zPcSEfWeuCOlfE6iRi16-6" vertex="1">
                    <mxGeometry x="1.75" y="440" width="37.5" height="50" as="geometry"/>
                </mxCell>
                <mxCell id="zPcSEfWeuCOlfE6iRi16-9" value="" style="endArrow=none;html=1;rounded=0;entryX=0.5;entryY=1;entryDx=0;entryDy=0;entryPerimeter=0;exitX=0.5;exitY=0;exitDx=0;exitDy=0;exitPerimeter=0;dashed=1;strokeColor=#9673A6;" parent="zPcSEfWeuCOlfE6iRi16-6" source="zPcSEfWeuCOlfE6iRi16-8" target="zPcSEfWeuCOlfE6iRi16-7" edge="1">
                    <mxGeometry width="50" height="50" relative="1" as="geometry">
                        <mxPoint x="-191.25" y="200" as="sourcePoint"/>
                        <mxPoint x="-141.25" y="150" as="targetPoint"/>
                    </mxGeometry>
                </mxCell>
                <mxCell id="zPcSEfWeuCOlfE6iRi16-10" value="" style="html=1;points=[];perimeter=orthogonalPerimeter;fillColor=#e1d5e7;strokeColor=#9673a6;" parent="zPcSEfWeuCOlfE6iRi16-6" vertex="1">
                    <mxGeometry x="13.75" y="180" width="10" height="20" as="geometry"/>
                </mxCell>
                <mxCell id="zPcSEfWeuCOlfE6iRi16-11" value="[message]" style="html=1;verticalAlign=bottom;endArrow=block;rounded=0;exitX=1.059;exitY=0.059;exitDx=0;exitDy=0;exitPerimeter=0;entryX=-0.062;entryY=0.005;entryDx=0;entryDy=0;entryPerimeter=0;" parent="1" source="zPcSEfWeuCOlfE6iRi16-42" target="zPcSEfWeuCOlfE6iRi16-10" edge="1">
                    <mxGeometry x="0.0009" relative="1" as="geometry">
                        <mxPoint x="565.4000000000001" y="320.48" as="sourcePoint"/>
                        <mxPoint x="710" y="320" as="targetPoint"/>
                        <mxPoint as="offset"/>
                    </mxGeometry>
                </mxCell>
                <mxCell id="zPcSEfWeuCOlfE6iRi16-12" style="rounded=0;orthogonalLoop=1;jettySize=auto;html=1;endArrow=open;endFill=0;dashed=1;exitX=-0.002;exitY=1.001;exitDx=0;exitDy=0;exitPerimeter=0;entryX=0.998;entryY=0.876;entryDx=0;entryDy=0;entryPerimeter=0;" parent="1" source="zPcSEfWeuCOlfE6iRi16-36" target="zPcSEfWeuCOlfE6iRi16-30" edge="1">
                    <mxGeometry relative="1" as="geometry">
                        <mxPoint x="245.05999999999995" y="480.31999999999994" as="targetPoint"/>
                        <mxPoint x="395.1199999999999" y="479.52" as="sourcePoint"/>
                    </mxGeometry>
                </mxCell>
                <mxCell id="zPcSEfWeuCOlfE6iRi16-13" value="[message]" style="edgeLabel;html=1;align=center;verticalAlign=bottom;resizable=0;points=[];" parent="zPcSEfWeuCOlfE6iRi16-12" vertex="1" connectable="0">
                    <mxGeometry x="-0.0596" y="-1" relative="1" as="geometry">
                        <mxPoint as="offset"/>
                    </mxGeometry>
                </mxCell>
                <mxCell id="zPcSEfWeuCOlfE6iRi16-14" style="rounded=0;orthogonalLoop=1;jettySize=auto;html=1;endArrow=open;endFill=0;dashed=1;exitX=0;exitY=1.001;exitDx=0;exitDy=0;exitPerimeter=0;entryX=1.005;entryY=0.834;entryDx=0;entryDy=0;entryPerimeter=0;" parent="1" source="zPcSEfWeuCOlfE6iRi16-42" target="zPcSEfWeuCOlfE6iRi16-36" edge="1">
                    <mxGeometry relative="1" as="geometry">
                        <mxPoint x="404.96000000000004" y="440.1600000000001" as="targetPoint"/>
                        <mxPoint x="554.96" y="440" as="sourcePoint"/>
                    </mxGeometry>
                </mxCell>
                <mxCell id="zPcSEfWeuCOlfE6iRi16-15" value="[message]" style="edgeLabel;html=1;align=center;verticalAlign=bottom;resizable=0;points=[];" parent="zPcSEfWeuCOlfE6iRi16-14" vertex="1" connectable="0">
                    <mxGeometry x="-0.0596" y="-1" relative="1" as="geometry">
                        <mxPoint as="offset"/>
                    </mxGeometry>
                </mxCell>
                <mxCell id="zPcSEfWeuCOlfE6iRi16-18" value="" style="group" parent="1" vertex="1" connectable="0">
                    <mxGeometry x="70" y="110" width="20" height="480" as="geometry"/>
                </mxCell>
                <mxCell id="zPcSEfWeuCOlfE6iRi16-19" value="" style="group" parent="zPcSEfWeuCOlfE6iRi16-18" vertex="1" connectable="0">
                    <mxGeometry y="10" width="20" height="480" as="geometry"/>
                </mxCell>
                <mxCell id="zPcSEfWeuCOlfE6iRi16-20" value="" style="endArrow=none;html=1;rounded=0;entryX=0.5;entryY=0;entryDx=0;entryDy=0;entryPerimeter=0;dashed=1;strokeColor=#B85450;" parent="zPcSEfWeuCOlfE6iRi16-19" source="zPcSEfWeuCOlfE6iRi16-22" target="zPcSEfWeuCOlfE6iRi16-21" edge="1">
                    <mxGeometry width="50" height="50" relative="1" as="geometry">
                        <mxPoint x="100" y="270" as="sourcePoint"/>
                        <mxPoint x="150" y="220" as="targetPoint"/>
                    </mxGeometry>
                </mxCell>
                <mxCell id="zPcSEfWeuCOlfE6iRi16-21" value="[Actor]" style="shape=umlActor;verticalLabelPosition=middle;verticalAlign=top;html=1;outlineConnect=0;strokeColor=light-dark(#B85450,#D7817E);fillColor=light-dark(#F8CECC,#512D2B);labelPosition=center;align=center;spacingTop=36;" parent="zPcSEfWeuCOlfE6iRi16-19" vertex="1">
                    <mxGeometry y="440" width="20" height="40" as="geometry"/>
                </mxCell>
                <mxCell id="zPcSEfWeuCOlfE6iRi16-22" value="[Actor]" style="shape=umlActor;verticalLabelPosition=middle;verticalAlign=top;html=1;outlineConnect=0;strokeColor=light-dark(#B85450,#D7817E);fillColor=light-dark(#F8CECC,#512D2B);labelPosition=center;align=center;spacingTop=36;" parent="zPcSEfWeuCOlfE6iRi16-19" vertex="1">
                    <mxGeometry width="20" height="40" as="geometry"/>
                </mxCell>
                <mxCell id="zPcSEfWeuCOlfE6iRi16-23" value="&lt;span style=&quot;color: rgba(0, 0, 0, 0); font-family: monospace; font-size: 0px; text-align: start;&quot;&gt;%3CmxGraphModel%3E%3Croot%3E%3CmxCell%20id%3D%220%22%2F%3E%3CmxCell%20id%3D%221%22%20parent%3D%220%22%2F%3E%3CmxCell%20id%3D%222%22%20value%3D%22%5Bmessage%5D%22%20style%3D%22html%3D1%3BverticalAlign%3Dbottom%3BendArrow%3Dblock%3Brounded%3D0%3BexitX%3D0.983%3BexitY%3D0.126%3BexitDx%3D0%3BexitDy%3D0%3BexitPerimeter%3D0%3B%22%20edge%3D%221%22%20parent%3D%221%22%3E%3CmxGeometry%20x%3D%220.0009%22%20relative%3D%221%22%20as%3D%22geometry%22%3E%3CmxPoint%20x%3D%22325%22%20y%3D%22240%22%20as%3D%22sourcePoint%22%2F%3E%3CmxPoint%20x%3D%22475%22%20y%3D%22240%22%20as%3D%22targetPoint%22%2F%3E%3CmxPoint%20as%3D%22offset%22%2F%3E%3C%2FmxGeometry%3E%3C%2FmxCell%3E%3C%2Froot%3E%3C%2FmxGraphModel%3E&lt;/span&gt;" style="html=1;points=[];perimeter=orthogonalPerimeter;fillColor=#FFE6CC00;strokeColor=#D79B0000;" parent="zPcSEfWeuCOlfE6iRi16-19" vertex="1">
                    <mxGeometry x="5" y="80" width="10" height="320" as="geometry"/>
                </mxCell>
                <mxCell id="zPcSEfWeuCOlfE6iRi16-24" value="[message]" style="html=1;verticalAlign=bottom;endArrow=block;rounded=0;entryX=0.018;entryY=0;entryDx=0;entryDy=0;entryPerimeter=0;exitX=0.486;exitY=0.001;exitDx=0;exitDy=0;exitPerimeter=0;" parent="1" source="zPcSEfWeuCOlfE6iRi16-23" target="zPcSEfWeuCOlfE6iRi16-30" edge="1">
                    <mxGeometry x="0.0009" relative="1" as="geometry">
                        <mxPoint x="80" y="200" as="sourcePoint"/>
                        <mxPoint x="235.42000000000007" y="199.3599999999999" as="targetPoint"/>
                        <mxPoint as="offset"/>
                    </mxGeometry>
                </mxCell>
                <mxCell id="zPcSEfWeuCOlfE6iRi16-25" value="" style="group" parent="1" vertex="1" connectable="0">
                    <mxGeometry x="190" y="120" width="100" height="560" as="geometry"/>
                </mxCell>
                <mxCell id="zPcSEfWeuCOlfE6iRi16-26" value="[View]" style="rounded=0;whiteSpace=wrap;html=1;strokeColor=#D79B00;fillColor=#FFE6CC;" parent="zPcSEfWeuCOlfE6iRi16-25" vertex="1">
                    <mxGeometry width="100" height="40" as="geometry"/>
                </mxCell>
                <mxCell id="zPcSEfWeuCOlfE6iRi16-27" value="[View]" style="rounded=0;whiteSpace=wrap;html=1;strokeColor=#D79B00;fillColor=#FFE6CC;" parent="zPcSEfWeuCOlfE6iRi16-25" vertex="1">
                    <mxGeometry y="440" width="100" height="40" as="geometry"/>
                </mxCell>
                <mxCell id="zPcSEfWeuCOlfE6iRi16-28" value="" style="endArrow=none;html=1;rounded=0;entryX=0.5;entryY=1;entryDx=0;entryDy=0;exitX=0.5;exitY=0;exitDx=0;exitDy=0;strokeColor=#D79B00;dashed=1;" parent="zPcSEfWeuCOlfE6iRi16-25" source="zPcSEfWeuCOlfE6iRi16-30" target="zPcSEfWeuCOlfE6iRi16-26" edge="1">
                    <mxGeometry width="50" height="50" relative="1" as="geometry">
                        <mxPoint x="40" y="500" as="sourcePoint"/>
                        <mxPoint x="90" y="450" as="targetPoint"/>
                    </mxGeometry>
                </mxCell>
                <mxCell id="zPcSEfWeuCOlfE6iRi16-29" value="" style="endArrow=none;html=1;rounded=0;entryX=0.5;entryY=1;entryDx=0;entryDy=0;exitX=0.5;exitY=0;exitDx=0;exitDy=0;strokeColor=#D79B00;dashed=1;" parent="zPcSEfWeuCOlfE6iRi16-25" source="zPcSEfWeuCOlfE6iRi16-27" target="zPcSEfWeuCOlfE6iRi16-30" edge="1">
                    <mxGeometry width="50" height="50" relative="1" as="geometry">
                        <mxPoint x="50" y="520" as="sourcePoint"/>
                        <mxPoint x="50" y="460" as="targetPoint"/>
                    </mxGeometry>
                </mxCell>
                <mxCell id="zPcSEfWeuCOlfE6iRi16-30" value="&lt;span style=&quot;color: rgba(237, 237, 237, 0); font-family: monospace; font-size: 0px; text-align: start;&quot;&gt;%3CmxGraphModel%3E%3Croot%3E%3CmxCell%20id%3D%220%22%2F%3E%3CmxCell%20id%3D%221%22%20parent%3D%220%22%2F%3E%3CmxCell%20id%3D%222%22%20value%3D%22%5Bmessage%5D%22%20style%3D%22html%3D1%3BverticalAlign%3Dbottom%3BendArrow%3Dblock%3Brounded%3D0%3BexitX%3D0.983%3BexitY%3D0.126%3BexitDx%3D0%3BexitDy%3D0%3BexitPerimeter%3D0%3B%22%20edge%3D%221%22%20parent%3D%221%22%3E%3CmxGeometry%20x%3D%220.0009%22%20relative%3D%221%22%20as%3D%22geometry%22%3E%3CmxPoint%20x%3D%22325%22%20y%3D%22240%22%20as%3D%22sourcePoint%22%2F%3E%3CmxPoint%20x%3D%22475%22%20y%3D%22240%22%20as%3D%22targetPoint%22%2F%3E%3CmxPoint%20as%3D%22offset%22%2F%3E%3C%2FmxGeometry%3E%3C%2FmxCell%3E%3C%2Froot%3E%3C%2FmxGraphModel%3E&lt;/span&gt;" style="html=1;points=[];perimeter=orthogonalPerimeter;fillColor=#ffe6cc;strokeColor=#d79b00;" parent="zPcSEfWeuCOlfE6iRi16-25" vertex="1">
                    <mxGeometry x="45" y="80" width="10" height="320" as="geometry"/>
                </mxCell>
                <mxCell id="zPcSEfWeuCOlfE6iRi16-31" value="" style="group" parent="1" vertex="1" connectable="0">
                    <mxGeometry x="350" y="120" width="100" height="560" as="geometry"/>
                </mxCell>
                <mxCell id="zPcSEfWeuCOlfE6iRi16-32" value="[Controller]" style="rounded=0;whiteSpace=wrap;html=1;strokeColor=#6C8EBF;fillColor=#DAE8FC;" parent="zPcSEfWeuCOlfE6iRi16-31" vertex="1">
                    <mxGeometry width="100" height="40" as="geometry"/>
                </mxCell>
                <mxCell id="zPcSEfWeuCOlfE6iRi16-33" value="[Controller]" style="rounded=0;whiteSpace=wrap;html=1;strokeColor=#6C8EBF;fillColor=#DAE8FC;" parent="zPcSEfWeuCOlfE6iRi16-31" vertex="1">
                    <mxGeometry y="440" width="100" height="40" as="geometry"/>
                </mxCell>
                <mxCell id="zPcSEfWeuCOlfE6iRi16-34" value="" style="endArrow=none;html=1;rounded=0;entryX=0.5;entryY=1;entryDx=0;entryDy=0;exitX=0.5;exitY=0;exitDx=0;exitDy=0;strokeColor=#6C8EBF;dashed=1;" parent="zPcSEfWeuCOlfE6iRi16-31" source="zPcSEfWeuCOlfE6iRi16-36" target="zPcSEfWeuCOlfE6iRi16-32" edge="1">
                    <mxGeometry width="50" height="50" relative="1" as="geometry">
                        <mxPoint x="40" y="500" as="sourcePoint"/>
                        <mxPoint x="90" y="450" as="targetPoint"/>
                    </mxGeometry>
                </mxCell>
                <mxCell id="zPcSEfWeuCOlfE6iRi16-35" value="" style="endArrow=none;html=1;rounded=0;entryX=0.5;entryY=1;entryDx=0;entryDy=0;exitX=0.5;exitY=0;exitDx=0;exitDy=0;strokeColor=#6C8EBF;dashed=1;" parent="zPcSEfWeuCOlfE6iRi16-31" source="zPcSEfWeuCOlfE6iRi16-33" target="zPcSEfWeuCOlfE6iRi16-36" edge="1">
                    <mxGeometry width="50" height="50" relative="1" as="geometry">
                        <mxPoint x="50" y="520" as="sourcePoint"/>
                        <mxPoint x="50" y="460" as="targetPoint"/>
                    </mxGeometry>
                </mxCell>
                <mxCell id="zPcSEfWeuCOlfE6iRi16-36" value="&lt;span style=&quot;color: rgba(237, 237, 237, 0); font-family: monospace; font-size: 0px; text-align: start;&quot;&gt;%3CmxGraphModel%3E%3Croot%3E%3CmxCell%20id%3D%220%22%2F%3E%3CmxCell%20id%3D%221%22%20parent%3D%220%22%2F%3E%3CmxCell%20id%3D%222%22%20value%3D%22%5Bmessage%5D%22%20style%3D%22html%3D1%3BverticalAlign%3Dbottom%3BendArrow%3Dblock%3Brounded%3D0%3BexitX%3D0.983%3BexitY%3D0.126%3BexitDx%3D0%3BexitDy%3D0%3BexitPerimeter%3D0%3B%22%20edge%3D%221%22%20parent%3D%221%22%3E%3CmxGeometry%20x%3D%220.0009%22%20relative%3D%221%22%20as%3D%22geometry%22%3E%3CmxPoint%20x%3D%22325%22%20y%3D%22240%22%20as%3D%22sourcePoint%22%2F%3E%3CmxPoint%20x%3D%22475%22%20y%3D%22240%22%20as%3D%22targetPoint%22%2F%3E%3CmxPoint%20as%3D%22offset%22%2F%3E%3C%2FmxGeometry%3E%3C%2FmxCell%3E%3C%2Froot%3E%3C%2FmxGraphModel%3E&lt;/span&gt;" style="html=1;points=[];perimeter=orthogonalPerimeter;fillColor=#DAE8FC;strokeColor=#6C8EBF;" parent="zPcSEfWeuCOlfE6iRi16-31" vertex="1">
                    <mxGeometry x="45" y="120" width="10" height="240" as="geometry"/>
                </mxCell>
                <mxCell id="zPcSEfWeuCOlfE6iRi16-37" value="" style="group" parent="1" vertex="1" connectable="0">
                    <mxGeometry x="510" y="120" width="100" height="560" as="geometry"/>
                </mxCell>
                <mxCell id="zPcSEfWeuCOlfE6iRi16-38" value="[Model]" style="rounded=0;whiteSpace=wrap;html=1;strokeColor=#82B366;fillColor=#D5E8D4;" parent="zPcSEfWeuCOlfE6iRi16-37" vertex="1">
                    <mxGeometry width="100" height="40" as="geometry"/>
                </mxCell>
                <mxCell id="zPcSEfWeuCOlfE6iRi16-39" value="[Model]" style="rounded=0;whiteSpace=wrap;html=1;strokeColor=#82B366;fillColor=#D5E8D4;" parent="zPcSEfWeuCOlfE6iRi16-37" vertex="1">
                    <mxGeometry y="440" width="100" height="40" as="geometry"/>
                </mxCell>
                <mxCell id="zPcSEfWeuCOlfE6iRi16-40" value="" style="endArrow=none;html=1;rounded=0;entryX=0.5;entryY=1;entryDx=0;entryDy=0;exitX=0.5;exitY=0;exitDx=0;exitDy=0;strokeColor=#82B366;dashed=1;" parent="zPcSEfWeuCOlfE6iRi16-37" source="zPcSEfWeuCOlfE6iRi16-42" target="zPcSEfWeuCOlfE6iRi16-38" edge="1">
                    <mxGeometry width="50" height="50" relative="1" as="geometry">
                        <mxPoint x="40" y="500" as="sourcePoint"/>
                        <mxPoint x="90" y="450" as="targetPoint"/>
                    </mxGeometry>
                </mxCell>
                <mxCell id="zPcSEfWeuCOlfE6iRi16-41" value="" style="endArrow=none;html=1;rounded=0;entryX=0.5;entryY=1;entryDx=0;entryDy=0;exitX=0.5;exitY=0;exitDx=0;exitDy=0;strokeColor=#82B366;dashed=1;" parent="zPcSEfWeuCOlfE6iRi16-37" source="zPcSEfWeuCOlfE6iRi16-39" target="zPcSEfWeuCOlfE6iRi16-42" edge="1">
                    <mxGeometry width="50" height="50" relative="1" as="geometry">
                        <mxPoint x="50" y="520" as="sourcePoint"/>
                        <mxPoint x="50" y="460" as="targetPoint"/>
                    </mxGeometry>
                </mxCell>
                <mxCell id="zPcSEfWeuCOlfE6iRi16-42" value="&lt;span style=&quot;color: rgba(237, 237, 237, 0); font-family: monospace; font-size: 0px; text-align: start;&quot;&gt;%3CmxGraphModel%3E%3Croot%3E%3CmxCell%20id%3D%220%22%2F%3E%3CmxCell%20id%3D%221%22%20parent%3D%220%22%2F%3E%3CmxCell%20id%3D%222%22%20value%3D%22%5Bmessage%5D%22%20style%3D%22html%3D1%3BverticalAlign%3Dbottom%3BendArrow%3Dblock%3Brounded%3D0%3BexitX%3D0.983%3BexitY%3D0.126%3BexitDx%3D0%3BexitDy%3D0%3BexitPerimeter%3D0%3B%22%20edge%3D%221%22%20parent%3D%221%22%3E%3CmxGeometry%20x%3D%220.0009%22%20relative%3D%221%22%20as%3D%22geometry%22%3E%3CmxPoint%20x%3D%22325%22%20y%3D%22240%22%20as%3D%22sourcePoint%22%2F%3E%3CmxPoint%20x%3D%22475%22%20y%3D%22240%22%20as%3D%22targetPoint%22%2F%3E%3CmxPoint%20as%3D%22offset%22%2F%3E%3C%2FmxGeometry%3E%3C%2FmxCell%3E%3C%2Froot%3E%3C%2FmxGraphModel%3E&lt;/span&gt;" style="html=1;points=[];perimeter=orthogonalPerimeter;fillColor=#D5E8D4;strokeColor=#82B366;" parent="zPcSEfWeuCOlfE6iRi16-37" vertex="1">
                    <mxGeometry x="45" y="160" width="10" height="160" as="geometry"/>
                </mxCell>
                <mxCell id="qq-9h_s01sK11zOiSoZE-7" value="" style="group" parent="1" vertex="1" connectable="0">
                    <mxGeometry x="310" y="250" width="440" height="210" as="geometry"/>
                </mxCell>
                <mxCell id="qq-9h_s01sK11zOiSoZE-1" value="alt" style="shape=umlFrame;whiteSpace=wrap;html=1;fillColor=#f5f5f5;fontColor=#333333;strokeColor=#666666;" parent="qq-9h_s01sK11zOiSoZE-7" vertex="1">
                    <mxGeometry width="440" height="210" as="geometry"/>
                </mxCell>
                <mxCell id="qq-9h_s01sK11zOiSoZE-3" value="[if condition]" style="text;html=1;align=center;verticalAlign=middle;resizable=0;points=[];autosize=1;strokeColor=none;fillColor=none;" parent="qq-9h_s01sK11zOiSoZE-7" vertex="1">
                    <mxGeometry y="26.248409090909092" width="90" height="30" as="geometry"/>
                </mxCell>
                <mxCell id="qq-9h_s01sK11zOiSoZE-6" value="[else]" style="text;html=1;align=center;verticalAlign=middle;resizable=0;points=[];autosize=1;strokeColor=none;fillColor=none;" parent="qq-9h_s01sK11zOiSoZE-7" vertex="1">
                    <mxGeometry y="120.9090909090909" width="50" height="30" as="geometry"/>
                </mxCell>
                <mxCell id="qq-9h_s01sK11zOiSoZE-2" value="" style="endArrow=none;dashed=1;html=1;rounded=0;entryX=1;entryY=0.576;entryDx=0;entryDy=0;entryPerimeter=0;exitX=0;exitY=0.573;exitDx=0;exitDy=0;exitPerimeter=0;" parent="qq-9h_s01sK11zOiSoZE-7" source="qq-9h_s01sK11zOiSoZE-1" target="qq-9h_s01sK11zOiSoZE-1" edge="1">
                    <mxGeometry width="50" height="50" relative="1" as="geometry">
                        <mxPoint x="149.03225806451616" y="89.0909090909091" as="sourcePoint"/>
                        <mxPoint x="184.51612903225808" y="57.27272727272727" as="targetPoint"/>
                    </mxGeometry>
                </mxCell>
                <mxCell id="qq-9h_s01sK11zOiSoZE-9" style="rounded=0;orthogonalLoop=1;jettySize=auto;html=1;endArrow=open;endFill=0;dashed=1;exitX=-0.002;exitY=1;exitDx=0;exitDy=0;exitPerimeter=0;entryX=1.03;entryY=0.188;entryDx=0;entryDy=0;entryPerimeter=0;" parent="1" source="zPcSEfWeuCOlfE6iRi16-10" target="zPcSEfWeuCOlfE6iRi16-42" edge="1">
                    <mxGeometry relative="1" as="geometry">
                        <mxPoint x="570" y="310" as="targetPoint"/>
                        <mxPoint x="708" y="310" as="sourcePoint"/>
                    </mxGeometry>
                </mxCell>
                <mxCell id="qq-9h_s01sK11zOiSoZE-10" value="[message]" style="edgeLabel;html=1;align=center;verticalAlign=bottom;resizable=0;points=[];" parent="qq-9h_s01sK11zOiSoZE-9" vertex="1" connectable="0">
                    <mxGeometry x="-0.0596" y="-1" relative="1" as="geometry">
                        <mxPoint as="offset"/>
                    </mxGeometry>
                </mxCell>
                <mxCell id="qq-9h_s01sK11zOiSoZE-12" style="rounded=0;orthogonalLoop=1;jettySize=auto;html=1;endArrow=open;endFill=0;dashed=1;exitX=-0.066;exitY=0.314;exitDx=0;exitDy=0;exitPerimeter=0;entryX=1.014;entryY=0.375;entryDx=0;entryDy=0;entryPerimeter=0;" parent="1" source="zPcSEfWeuCOlfE6iRi16-42" target="zPcSEfWeuCOlfE6iRi16-36" edge="1">
                    <mxGeometry relative="1" as="geometry">
                        <mxPoint x="410" y="330" as="targetPoint"/>
                        <mxPoint x="550" y="330" as="sourcePoint"/>
                    </mxGeometry>
                </mxCell>
                <mxCell id="qq-9h_s01sK11zOiSoZE-13" value="[message]" style="edgeLabel;html=1;align=center;verticalAlign=bottom;resizable=0;points=[];" parent="qq-9h_s01sK11zOiSoZE-12" vertex="1" connectable="0">
                    <mxGeometry x="-0.0596" y="-1" relative="1" as="geometry">
                        <mxPoint as="offset"/>
                    </mxGeometry>
                </mxCell>
                <mxCell id="qq-9h_s01sK11zOiSoZE-11" value="[message]" style="html=1;verticalAlign=bottom;endArrow=block;rounded=0;exitX=1.001;exitY=0.708;exitDx=0;exitDy=0;exitPerimeter=0;entryX=-0.04;entryY=0.812;entryDx=0;entryDy=0;entryPerimeter=0;" parent="1" source="zPcSEfWeuCOlfE6iRi16-36" target="zPcSEfWeuCOlfE6iRi16-42" edge="1">
                    <mxGeometry x="0.0009" relative="1" as="geometry">
                        <mxPoint x="405" y="410" as="sourcePoint"/>
                        <mxPoint x="555" y="410" as="targetPoint"/>
                        <mxPoint as="offset"/>
                    </mxGeometry>
                </mxCell>
            </root>
        </mxGraphModel>
    </diagram>
    <diagram id="1ctdyRco9IHxQf6zz81o" name="opt">
        <mxGraphModel dx="579" dy="402" grid="1" gridSize="10" guides="1" tooltips="1" connect="1" arrows="1" fold="1" page="1" pageScale="1" pageWidth="850" pageHeight="1100" math="0" shadow="0">
            <root>
                <mxCell id="0"/>
                <mxCell id="1" parent="0"/>
                <mxCell id="3Zec88nkcLXpxMjKHrJN-1" value="[use case name]" style="shape=umlFrame;whiteSpace=wrap;html=1;width=120;height=30;boundedLbl=1;verticalAlign=middle;align=left;spacingLeft=5;fillColor=#f5f5f5;fontColor=#333333;strokeColor=#666666;" parent="1" vertex="1">
                    <mxGeometry x="40" y="40" width="760" height="600" as="geometry"/>
                </mxCell>
                <mxCell id="3Zec88nkcLXpxMjKHrJN-2" value="[message]" style="html=1;verticalAlign=bottom;endArrow=block;rounded=0;exitX=1.003;exitY=0.128;exitDx=0;exitDy=0;exitPerimeter=0;entryX=0.003;entryY=-0.002;entryDx=0;entryDy=0;entryPerimeter=0;" parent="1" source="3Zec88nkcLXpxMjKHrJN-28" target="3Zec88nkcLXpxMjKHrJN-34" edge="1">
                    <mxGeometry x="0.0009" relative="1" as="geometry">
                        <mxPoint x="244.82999999999993" y="240.31999999999994" as="sourcePoint"/>
                        <mxPoint x="395" y="240.31999999999994" as="targetPoint"/>
                        <mxPoint as="offset"/>
                    </mxGeometry>
                </mxCell>
                <mxCell id="3Zec88nkcLXpxMjKHrJN-3" style="edgeStyle=none;rounded=0;orthogonalLoop=1;jettySize=auto;html=1;endArrow=open;endFill=0;dashed=1;exitX=-0.015;exitY=1;exitDx=0;exitDy=0;exitPerimeter=0;entryX=0.495;entryY=1.001;entryDx=0;entryDy=0;entryPerimeter=0;" parent="1" source="3Zec88nkcLXpxMjKHrJN-28" target="3Zec88nkcLXpxMjKHrJN-21" edge="1">
                    <mxGeometry relative="1" as="geometry">
                        <Array as="points">
                            <mxPoint x="150" y="520"/>
                        </Array>
                        <mxPoint x="80" y="520" as="targetPoint"/>
                        <mxPoint x="235.11000000000013" y="519.3599999999999" as="sourcePoint"/>
                    </mxGeometry>
                </mxCell>
                <mxCell id="3Zec88nkcLXpxMjKHrJN-4" value="[message]" style="edgeLabel;html=1;align=center;verticalAlign=bottom;resizable=0;points=[];" parent="3Zec88nkcLXpxMjKHrJN-3" vertex="1" connectable="0">
                    <mxGeometry x="-0.0596" y="-1" relative="1" as="geometry">
                        <mxPoint as="offset"/>
                    </mxGeometry>
                </mxCell>
                <mxCell id="3Zec88nkcLXpxMjKHrJN-5" value="[message]" style="html=1;verticalAlign=bottom;endArrow=block;rounded=0;exitX=0.994;exitY=0.166;exitDx=0;exitDy=0;exitPerimeter=0;entryX=0.006;entryY=0;entryDx=0;entryDy=0;entryPerimeter=0;" parent="1" source="3Zec88nkcLXpxMjKHrJN-34" target="3Zec88nkcLXpxMjKHrJN-40" edge="1">
                    <mxGeometry x="0.0009" relative="1" as="geometry">
                        <mxPoint x="404.8699999999999" y="279.6" as="sourcePoint"/>
                        <mxPoint x="555.0899999999999" y="280.15999999999997" as="targetPoint"/>
                        <mxPoint as="offset"/>
                    </mxGeometry>
                </mxCell>
                <mxCell id="3Zec88nkcLXpxMjKHrJN-6" value="" style="group;verticalAlign=top;spacingTop=36;" parent="1" vertex="1" connectable="0">
                    <mxGeometry x="700" y="110" width="39.25" height="500" as="geometry"/>
                </mxCell>
                <mxCell id="3Zec88nkcLXpxMjKHrJN-7" value="Database" style="shape=cylinder3;whiteSpace=wrap;html=1;boundedLbl=1;backgroundOutline=1;size=15;strokeColor=#9673A6;fillColor=#E1D5E7;verticalAlign=middle;spacingTop=36;" parent="3Zec88nkcLXpxMjKHrJN-6" vertex="1">
                    <mxGeometry width="37.5" height="50" as="geometry"/>
                </mxCell>
                <mxCell id="3Zec88nkcLXpxMjKHrJN-8" value="Database" style="shape=cylinder3;whiteSpace=wrap;html=1;boundedLbl=1;backgroundOutline=1;size=15;strokeColor=#9673A6;fillColor=#E1D5E7;spacingTop=36;" parent="3Zec88nkcLXpxMjKHrJN-6" vertex="1">
                    <mxGeometry x="1.75" y="440" width="37.5" height="50" as="geometry"/>
                </mxCell>
                <mxCell id="3Zec88nkcLXpxMjKHrJN-9" value="" style="endArrow=none;html=1;rounded=0;entryX=0.5;entryY=1;entryDx=0;entryDy=0;entryPerimeter=0;exitX=0.5;exitY=0;exitDx=0;exitDy=0;exitPerimeter=0;dashed=1;strokeColor=#9673A6;" parent="3Zec88nkcLXpxMjKHrJN-6" source="3Zec88nkcLXpxMjKHrJN-8" target="3Zec88nkcLXpxMjKHrJN-7" edge="1">
                    <mxGeometry width="50" height="50" relative="1" as="geometry">
                        <mxPoint x="-191.25" y="200" as="sourcePoint"/>
                        <mxPoint x="-141.25" y="150" as="targetPoint"/>
                    </mxGeometry>
                </mxCell>
                <mxCell id="3Zec88nkcLXpxMjKHrJN-10" value="" style="html=1;points=[];perimeter=orthogonalPerimeter;fillColor=#e1d5e7;strokeColor=#9673a6;" parent="3Zec88nkcLXpxMjKHrJN-6" vertex="1">
                    <mxGeometry x="13.75" y="180" width="10" height="20" as="geometry"/>
                </mxCell>
                <mxCell id="3Zec88nkcLXpxMjKHrJN-11" value="[message]" style="html=1;verticalAlign=bottom;endArrow=block;rounded=0;exitX=1.059;exitY=0.059;exitDx=0;exitDy=0;exitPerimeter=0;entryX=-0.062;entryY=0.005;entryDx=0;entryDy=0;entryPerimeter=0;" parent="1" source="3Zec88nkcLXpxMjKHrJN-40" target="3Zec88nkcLXpxMjKHrJN-10" edge="1">
                    <mxGeometry x="0.0009" relative="1" as="geometry">
                        <mxPoint x="565.4000000000001" y="320.48" as="sourcePoint"/>
                        <mxPoint x="710" y="320" as="targetPoint"/>
                        <mxPoint as="offset"/>
                    </mxGeometry>
                </mxCell>
                <mxCell id="3Zec88nkcLXpxMjKHrJN-12" style="rounded=0;orthogonalLoop=1;jettySize=auto;html=1;endArrow=open;endFill=0;dashed=1;exitX=-0.002;exitY=1.001;exitDx=0;exitDy=0;exitPerimeter=0;entryX=0.998;entryY=0.876;entryDx=0;entryDy=0;entryPerimeter=0;" parent="1" source="3Zec88nkcLXpxMjKHrJN-34" target="3Zec88nkcLXpxMjKHrJN-28" edge="1">
                    <mxGeometry relative="1" as="geometry">
                        <mxPoint x="245.05999999999995" y="480.31999999999994" as="targetPoint"/>
                        <mxPoint x="395.1199999999999" y="479.52" as="sourcePoint"/>
                    </mxGeometry>
                </mxCell>
                <mxCell id="3Zec88nkcLXpxMjKHrJN-13" value="[message]" style="edgeLabel;html=1;align=center;verticalAlign=bottom;resizable=0;points=[];" parent="3Zec88nkcLXpxMjKHrJN-12" vertex="1" connectable="0">
                    <mxGeometry x="-0.0596" y="-1" relative="1" as="geometry">
                        <mxPoint as="offset"/>
                    </mxGeometry>
                </mxCell>
                <mxCell id="3Zec88nkcLXpxMjKHrJN-14" style="rounded=0;orthogonalLoop=1;jettySize=auto;html=1;endArrow=open;endFill=0;dashed=1;exitX=0;exitY=1.001;exitDx=0;exitDy=0;exitPerimeter=0;entryX=1.005;entryY=0.834;entryDx=0;entryDy=0;entryPerimeter=0;" parent="1" source="3Zec88nkcLXpxMjKHrJN-40" target="3Zec88nkcLXpxMjKHrJN-34" edge="1">
                    <mxGeometry relative="1" as="geometry">
                        <mxPoint x="404.96000000000004" y="440.1600000000001" as="targetPoint"/>
                        <mxPoint x="554.96" y="440" as="sourcePoint"/>
                    </mxGeometry>
                </mxCell>
                <mxCell id="3Zec88nkcLXpxMjKHrJN-15" value="[message]" style="edgeLabel;html=1;align=center;verticalAlign=bottom;resizable=0;points=[];" parent="3Zec88nkcLXpxMjKHrJN-14" vertex="1" connectable="0">
                    <mxGeometry x="-0.0596" y="-1" relative="1" as="geometry">
                        <mxPoint as="offset"/>
                    </mxGeometry>
                </mxCell>
                <mxCell id="3Zec88nkcLXpxMjKHrJN-16" value="" style="group" parent="1" vertex="1" connectable="0">
                    <mxGeometry x="70" y="110" width="20" height="480" as="geometry"/>
                </mxCell>
                <mxCell id="3Zec88nkcLXpxMjKHrJN-17" value="" style="group" parent="3Zec88nkcLXpxMjKHrJN-16" vertex="1" connectable="0">
                    <mxGeometry y="10" width="20" height="480" as="geometry"/>
                </mxCell>
                <mxCell id="3Zec88nkcLXpxMjKHrJN-18" value="" style="endArrow=none;html=1;rounded=0;entryX=0.5;entryY=0;entryDx=0;entryDy=0;entryPerimeter=0;dashed=1;strokeColor=#B85450;" parent="3Zec88nkcLXpxMjKHrJN-17" source="3Zec88nkcLXpxMjKHrJN-20" target="3Zec88nkcLXpxMjKHrJN-19" edge="1">
                    <mxGeometry width="50" height="50" relative="1" as="geometry">
                        <mxPoint x="100" y="270" as="sourcePoint"/>
                        <mxPoint x="150" y="220" as="targetPoint"/>
                    </mxGeometry>
                </mxCell>
                <mxCell id="3Zec88nkcLXpxMjKHrJN-19" value="[Actor]" style="shape=umlActor;verticalLabelPosition=middle;verticalAlign=top;html=1;outlineConnect=0;strokeColor=light-dark(#B85450,#D7817E);fillColor=light-dark(#F8CECC,#512D2B);labelPosition=center;align=center;spacingTop=36;" parent="3Zec88nkcLXpxMjKHrJN-17" vertex="1">
                    <mxGeometry y="440" width="20" height="40" as="geometry"/>
                </mxCell>
                <mxCell id="3Zec88nkcLXpxMjKHrJN-20" value="[Actor]" style="shape=umlActor;verticalLabelPosition=middle;verticalAlign=top;html=1;outlineConnect=0;strokeColor=light-dark(#B85450,#D7817E);fillColor=light-dark(#F8CECC,#512D2B);labelPosition=center;align=center;spacingTop=36;" parent="3Zec88nkcLXpxMjKHrJN-17" vertex="1">
                    <mxGeometry width="20" height="40" as="geometry"/>
                </mxCell>
                <mxCell id="3Zec88nkcLXpxMjKHrJN-21" value="&lt;span style=&quot;color: rgba(0, 0, 0, 0); font-family: monospace; font-size: 0px; text-align: start;&quot;&gt;%3CmxGraphModel%3E%3Croot%3E%3CmxCell%20id%3D%220%22%2F%3E%3CmxCell%20id%3D%221%22%20parent%3D%220%22%2F%3E%3CmxCell%20id%3D%222%22%20value%3D%22%5Bmessage%5D%22%20style%3D%22html%3D1%3BverticalAlign%3Dbottom%3BendArrow%3Dblock%3Brounded%3D0%3BexitX%3D0.983%3BexitY%3D0.126%3BexitDx%3D0%3BexitDy%3D0%3BexitPerimeter%3D0%3B%22%20edge%3D%221%22%20parent%3D%221%22%3E%3CmxGeometry%20x%3D%220.0009%22%20relative%3D%221%22%20as%3D%22geometry%22%3E%3CmxPoint%20x%3D%22325%22%20y%3D%22240%22%20as%3D%22sourcePoint%22%2F%3E%3CmxPoint%20x%3D%22475%22%20y%3D%22240%22%20as%3D%22targetPoint%22%2F%3E%3CmxPoint%20as%3D%22offset%22%2F%3E%3C%2FmxGeometry%3E%3C%2FmxCell%3E%3C%2Froot%3E%3C%2FmxGraphModel%3E&lt;/span&gt;" style="html=1;points=[];perimeter=orthogonalPerimeter;fillColor=#FFE6CC00;strokeColor=#D79B0000;" parent="3Zec88nkcLXpxMjKHrJN-17" vertex="1">
                    <mxGeometry x="5" y="80" width="10" height="320" as="geometry"/>
                </mxCell>
                <mxCell id="3Zec88nkcLXpxMjKHrJN-22" value="[message]" style="html=1;verticalAlign=bottom;endArrow=block;rounded=0;entryX=0.018;entryY=0;entryDx=0;entryDy=0;entryPerimeter=0;exitX=0.486;exitY=0.001;exitDx=0;exitDy=0;exitPerimeter=0;" parent="1" source="3Zec88nkcLXpxMjKHrJN-21" target="3Zec88nkcLXpxMjKHrJN-28" edge="1">
                    <mxGeometry x="0.0009" relative="1" as="geometry">
                        <mxPoint x="80" y="200" as="sourcePoint"/>
                        <mxPoint x="235.42000000000007" y="199.3599999999999" as="targetPoint"/>
                        <mxPoint as="offset"/>
                    </mxGeometry>
                </mxCell>
                <mxCell id="3Zec88nkcLXpxMjKHrJN-23" value="" style="group" parent="1" vertex="1" connectable="0">
                    <mxGeometry x="190" y="120" width="100" height="560" as="geometry"/>
                </mxCell>
                <mxCell id="3Zec88nkcLXpxMjKHrJN-24" value="[View]" style="rounded=0;whiteSpace=wrap;html=1;strokeColor=#D79B00;fillColor=#FFE6CC;" parent="3Zec88nkcLXpxMjKHrJN-23" vertex="1">
                    <mxGeometry width="100" height="40" as="geometry"/>
                </mxCell>
                <mxCell id="3Zec88nkcLXpxMjKHrJN-25" value="[View]" style="rounded=0;whiteSpace=wrap;html=1;strokeColor=#D79B00;fillColor=#FFE6CC;" parent="3Zec88nkcLXpxMjKHrJN-23" vertex="1">
                    <mxGeometry y="440" width="100" height="40" as="geometry"/>
                </mxCell>
                <mxCell id="3Zec88nkcLXpxMjKHrJN-26" value="" style="endArrow=none;html=1;rounded=0;entryX=0.5;entryY=1;entryDx=0;entryDy=0;exitX=0.5;exitY=0;exitDx=0;exitDy=0;strokeColor=#D79B00;dashed=1;" parent="3Zec88nkcLXpxMjKHrJN-23" source="3Zec88nkcLXpxMjKHrJN-28" target="3Zec88nkcLXpxMjKHrJN-24" edge="1">
                    <mxGeometry width="50" height="50" relative="1" as="geometry">
                        <mxPoint x="40" y="500" as="sourcePoint"/>
                        <mxPoint x="90" y="450" as="targetPoint"/>
                    </mxGeometry>
                </mxCell>
                <mxCell id="3Zec88nkcLXpxMjKHrJN-27" value="" style="endArrow=none;html=1;rounded=0;entryX=0.5;entryY=1;entryDx=0;entryDy=0;exitX=0.5;exitY=0;exitDx=0;exitDy=0;strokeColor=#D79B00;dashed=1;" parent="3Zec88nkcLXpxMjKHrJN-23" source="3Zec88nkcLXpxMjKHrJN-25" target="3Zec88nkcLXpxMjKHrJN-28" edge="1">
                    <mxGeometry width="50" height="50" relative="1" as="geometry">
                        <mxPoint x="50" y="520" as="sourcePoint"/>
                        <mxPoint x="50" y="460" as="targetPoint"/>
                    </mxGeometry>
                </mxCell>
                <mxCell id="3Zec88nkcLXpxMjKHrJN-28" value="&lt;span style=&quot;color: rgba(237, 237, 237, 0); font-family: monospace; font-size: 0px; text-align: start;&quot;&gt;%3CmxGraphModel%3E%3Croot%3E%3CmxCell%20id%3D%220%22%2F%3E%3CmxCell%20id%3D%221%22%20parent%3D%220%22%2F%3E%3CmxCell%20id%3D%222%22%20value%3D%22%5Bmessage%5D%22%20style%3D%22html%3D1%3BverticalAlign%3Dbottom%3BendArrow%3Dblock%3Brounded%3D0%3BexitX%3D0.983%3BexitY%3D0.126%3BexitDx%3D0%3BexitDy%3D0%3BexitPerimeter%3D0%3B%22%20edge%3D%221%22%20parent%3D%221%22%3E%3CmxGeometry%20x%3D%220.0009%22%20relative%3D%221%22%20as%3D%22geometry%22%3E%3CmxPoint%20x%3D%22325%22%20y%3D%22240%22%20as%3D%22sourcePoint%22%2F%3E%3CmxPoint%20x%3D%22475%22%20y%3D%22240%22%20as%3D%22targetPoint%22%2F%3E%3CmxPoint%20as%3D%22offset%22%2F%3E%3C%2FmxGeometry%3E%3C%2FmxCell%3E%3C%2Froot%3E%3C%2FmxGraphModel%3E&lt;/span&gt;" style="html=1;points=[];perimeter=orthogonalPerimeter;fillColor=#ffe6cc;strokeColor=#d79b00;" parent="3Zec88nkcLXpxMjKHrJN-23" vertex="1">
                    <mxGeometry x="45" y="80" width="10" height="320" as="geometry"/>
                </mxCell>
                <mxCell id="3Zec88nkcLXpxMjKHrJN-29" value="" style="group" parent="1" vertex="1" connectable="0">
                    <mxGeometry x="350" y="120" width="100" height="560" as="geometry"/>
                </mxCell>
                <mxCell id="3Zec88nkcLXpxMjKHrJN-30" value="[Controller]" style="rounded=0;whiteSpace=wrap;html=1;strokeColor=#6C8EBF;fillColor=#DAE8FC;" parent="3Zec88nkcLXpxMjKHrJN-29" vertex="1">
                    <mxGeometry width="100" height="40" as="geometry"/>
                </mxCell>
                <mxCell id="3Zec88nkcLXpxMjKHrJN-31" value="[Controller]" style="rounded=0;whiteSpace=wrap;html=1;strokeColor=#6C8EBF;fillColor=#DAE8FC;" parent="3Zec88nkcLXpxMjKHrJN-29" vertex="1">
                    <mxGeometry y="440" width="100" height="40" as="geometry"/>
                </mxCell>
                <mxCell id="3Zec88nkcLXpxMjKHrJN-32" value="" style="endArrow=none;html=1;rounded=0;entryX=0.5;entryY=1;entryDx=0;entryDy=0;exitX=0.5;exitY=0;exitDx=0;exitDy=0;strokeColor=#6C8EBF;dashed=1;" parent="3Zec88nkcLXpxMjKHrJN-29" source="3Zec88nkcLXpxMjKHrJN-34" target="3Zec88nkcLXpxMjKHrJN-30" edge="1">
                    <mxGeometry width="50" height="50" relative="1" as="geometry">
                        <mxPoint x="40" y="500" as="sourcePoint"/>
                        <mxPoint x="90" y="450" as="targetPoint"/>
                    </mxGeometry>
                </mxCell>
                <mxCell id="3Zec88nkcLXpxMjKHrJN-33" value="" style="endArrow=none;html=1;rounded=0;entryX=0.5;entryY=1;entryDx=0;entryDy=0;exitX=0.5;exitY=0;exitDx=0;exitDy=0;strokeColor=#6C8EBF;dashed=1;" parent="3Zec88nkcLXpxMjKHrJN-29" source="3Zec88nkcLXpxMjKHrJN-31" target="3Zec88nkcLXpxMjKHrJN-34" edge="1">
                    <mxGeometry width="50" height="50" relative="1" as="geometry">
                        <mxPoint x="50" y="520" as="sourcePoint"/>
                        <mxPoint x="50" y="460" as="targetPoint"/>
                    </mxGeometry>
                </mxCell>
                <mxCell id="3Zec88nkcLXpxMjKHrJN-34" value="&lt;span style=&quot;color: rgba(237, 237, 237, 0); font-family: monospace; font-size: 0px; text-align: start;&quot;&gt;%3CmxGraphModel%3E%3Croot%3E%3CmxCell%20id%3D%220%22%2F%3E%3CmxCell%20id%3D%221%22%20parent%3D%220%22%2F%3E%3CmxCell%20id%3D%222%22%20value%3D%22%5Bmessage%5D%22%20style%3D%22html%3D1%3BverticalAlign%3Dbottom%3BendArrow%3Dblock%3Brounded%3D0%3BexitX%3D0.983%3BexitY%3D0.126%3BexitDx%3D0%3BexitDy%3D0%3BexitPerimeter%3D0%3B%22%20edge%3D%221%22%20parent%3D%221%22%3E%3CmxGeometry%20x%3D%220.0009%22%20relative%3D%221%22%20as%3D%22geometry%22%3E%3CmxPoint%20x%3D%22325%22%20y%3D%22240%22%20as%3D%22sourcePoint%22%2F%3E%3CmxPoint%20x%3D%22475%22%20y%3D%22240%22%20as%3D%22targetPoint%22%2F%3E%3CmxPoint%20as%3D%22offset%22%2F%3E%3C%2FmxGeometry%3E%3C%2FmxCell%3E%3C%2Froot%3E%3C%2FmxGraphModel%3E&lt;/span&gt;" style="html=1;points=[];perimeter=orthogonalPerimeter;fillColor=#DAE8FC;strokeColor=#6C8EBF;" parent="3Zec88nkcLXpxMjKHrJN-29" vertex="1">
                    <mxGeometry x="45" y="120" width="10" height="240" as="geometry"/>
                </mxCell>
                <mxCell id="3Zec88nkcLXpxMjKHrJN-35" value="" style="group" parent="1" vertex="1" connectable="0">
                    <mxGeometry x="510" y="120" width="100" height="560" as="geometry"/>
                </mxCell>
                <mxCell id="3Zec88nkcLXpxMjKHrJN-36" value="[Model]" style="rounded=0;whiteSpace=wrap;html=1;strokeColor=#82B366;fillColor=#D5E8D4;" parent="3Zec88nkcLXpxMjKHrJN-35" vertex="1">
                    <mxGeometry width="100" height="40" as="geometry"/>
                </mxCell>
                <mxCell id="3Zec88nkcLXpxMjKHrJN-37" value="[Model]" style="rounded=0;whiteSpace=wrap;html=1;strokeColor=#82B366;fillColor=#D5E8D4;" parent="3Zec88nkcLXpxMjKHrJN-35" vertex="1">
                    <mxGeometry y="440" width="100" height="40" as="geometry"/>
                </mxCell>
                <mxCell id="3Zec88nkcLXpxMjKHrJN-38" value="" style="endArrow=none;html=1;rounded=0;entryX=0.5;entryY=1;entryDx=0;entryDy=0;exitX=0.5;exitY=0;exitDx=0;exitDy=0;strokeColor=#82B366;dashed=1;" parent="3Zec88nkcLXpxMjKHrJN-35" source="3Zec88nkcLXpxMjKHrJN-40" target="3Zec88nkcLXpxMjKHrJN-36" edge="1">
                    <mxGeometry width="50" height="50" relative="1" as="geometry">
                        <mxPoint x="40" y="500" as="sourcePoint"/>
                        <mxPoint x="90" y="450" as="targetPoint"/>
                    </mxGeometry>
                </mxCell>
                <mxCell id="3Zec88nkcLXpxMjKHrJN-39" value="" style="endArrow=none;html=1;rounded=0;entryX=0.5;entryY=1;entryDx=0;entryDy=0;exitX=0.5;exitY=0;exitDx=0;exitDy=0;strokeColor=#82B366;dashed=1;" parent="3Zec88nkcLXpxMjKHrJN-35" source="3Zec88nkcLXpxMjKHrJN-37" target="3Zec88nkcLXpxMjKHrJN-40" edge="1">
                    <mxGeometry width="50" height="50" relative="1" as="geometry">
                        <mxPoint x="50" y="520" as="sourcePoint"/>
                        <mxPoint x="50" y="460" as="targetPoint"/>
                    </mxGeometry>
                </mxCell>
                <mxCell id="3Zec88nkcLXpxMjKHrJN-40" value="&lt;span style=&quot;color: rgba(237, 237, 237, 0); font-family: monospace; font-size: 0px; text-align: start;&quot;&gt;%3CmxGraphModel%3E%3Croot%3E%3CmxCell%20id%3D%220%22%2F%3E%3CmxCell%20id%3D%221%22%20parent%3D%220%22%2F%3E%3CmxCell%20id%3D%222%22%20value%3D%22%5Bmessage%5D%22%20style%3D%22html%3D1%3BverticalAlign%3Dbottom%3BendArrow%3Dblock%3Brounded%3D0%3BexitX%3D0.983%3BexitY%3D0.126%3BexitDx%3D0%3BexitDy%3D0%3BexitPerimeter%3D0%3B%22%20edge%3D%221%22%20parent%3D%221%22%3E%3CmxGeometry%20x%3D%220.0009%22%20relative%3D%221%22%20as%3D%22geometry%22%3E%3CmxPoint%20x%3D%22325%22%20y%3D%22240%22%20as%3D%22sourcePoint%22%2F%3E%3CmxPoint%20x%3D%22475%22%20y%3D%22240%22%20as%3D%22targetPoint%22%2F%3E%3CmxPoint%20as%3D%22offset%22%2F%3E%3C%2FmxGeometry%3E%3C%2FmxCell%3E%3C%2Froot%3E%3C%2FmxGraphModel%3E&lt;/span&gt;" style="html=1;points=[];perimeter=orthogonalPerimeter;fillColor=#D5E8D4;strokeColor=#82B366;" parent="3Zec88nkcLXpxMjKHrJN-35" vertex="1">
                    <mxGeometry x="45" y="160" width="10" height="160" as="geometry"/>
                </mxCell>
                <mxCell id="3Zec88nkcLXpxMjKHrJN-41" value="" style="group" parent="1" vertex="1" connectable="0">
                    <mxGeometry x="310" y="360" width="290" height="100" as="geometry"/>
                </mxCell>
                <mxCell id="3Zec88nkcLXpxMjKHrJN-42" value="opt" style="shape=umlFrame;whiteSpace=wrap;html=1;fillColor=#f5f5f5;fontColor=#333333;strokeColor=#666666;" parent="3Zec88nkcLXpxMjKHrJN-41" vertex="1">
                    <mxGeometry width="290" height="100" as="geometry"/>
                </mxCell>
                <mxCell id="3Zec88nkcLXpxMjKHrJN-43" value="[if condition]" style="text;html=1;align=center;verticalAlign=middle;resizable=0;points=[];autosize=1;strokeColor=none;fillColor=none;" parent="3Zec88nkcLXpxMjKHrJN-41" vertex="1">
                    <mxGeometry y="34.999242424242425" width="90" height="30" as="geometry"/>
                </mxCell>
                <mxCell id="3Zec88nkcLXpxMjKHrJN-46" style="rounded=0;orthogonalLoop=1;jettySize=auto;html=1;endArrow=open;endFill=0;dashed=1;exitX=-0.002;exitY=1;exitDx=0;exitDy=0;exitPerimeter=0;entryX=1.03;entryY=0.188;entryDx=0;entryDy=0;entryPerimeter=0;" parent="1" source="3Zec88nkcLXpxMjKHrJN-10" target="3Zec88nkcLXpxMjKHrJN-40" edge="1">
                    <mxGeometry relative="1" as="geometry">
                        <mxPoint x="570" y="310" as="targetPoint"/>
                        <mxPoint x="708" y="310" as="sourcePoint"/>
                    </mxGeometry>
                </mxCell>
                <mxCell id="3Zec88nkcLXpxMjKHrJN-47" value="[message]" style="edgeLabel;html=1;align=center;verticalAlign=bottom;resizable=0;points=[];" parent="3Zec88nkcLXpxMjKHrJN-46" vertex="1" connectable="0">
                    <mxGeometry x="-0.0596" y="-1" relative="1" as="geometry">
                        <mxPoint as="offset"/>
                    </mxGeometry>
                </mxCell>
                <mxCell id="3Zec88nkcLXpxMjKHrJN-48" style="rounded=0;orthogonalLoop=1;jettySize=auto;html=1;endArrow=open;endFill=0;dashed=1;exitX=-0.066;exitY=0.314;exitDx=0;exitDy=0;exitPerimeter=0;entryX=1.014;entryY=0.375;entryDx=0;entryDy=0;entryPerimeter=0;" parent="1" source="3Zec88nkcLXpxMjKHrJN-40" target="3Zec88nkcLXpxMjKHrJN-34" edge="1">
                    <mxGeometry relative="1" as="geometry">
                        <mxPoint x="410" y="330" as="targetPoint"/>
                        <mxPoint x="550" y="330" as="sourcePoint"/>
                    </mxGeometry>
                </mxCell>
                <mxCell id="3Zec88nkcLXpxMjKHrJN-49" value="[message]" style="edgeLabel;html=1;align=center;verticalAlign=bottom;resizable=0;points=[];" parent="3Zec88nkcLXpxMjKHrJN-48" vertex="1" connectable="0">
                    <mxGeometry x="-0.0596" y="-1" relative="1" as="geometry">
                        <mxPoint as="offset"/>
                    </mxGeometry>
                </mxCell>
                <mxCell id="3Zec88nkcLXpxMjKHrJN-50" value="[message]" style="html=1;verticalAlign=bottom;endArrow=block;rounded=0;exitX=1.001;exitY=0.708;exitDx=0;exitDy=0;exitPerimeter=0;entryX=-0.04;entryY=0.812;entryDx=0;entryDy=0;entryPerimeter=0;" parent="1" source="3Zec88nkcLXpxMjKHrJN-34" target="3Zec88nkcLXpxMjKHrJN-40" edge="1">
                    <mxGeometry x="0.0009" relative="1" as="geometry">
                        <mxPoint x="405" y="410" as="sourcePoint"/>
                        <mxPoint x="555" y="410" as="targetPoint"/>
                        <mxPoint as="offset"/>
                    </mxGeometry>
                </mxCell>
            </root>
        </mxGraphModel>
    </diagram>
    <diagram id="hbYBUEr95w08JzggDiKY" name="Original template for lose and found messages">
        <mxGraphModel dx="579" dy="402" grid="1" gridSize="10" guides="1" tooltips="1" connect="1" arrows="1" fold="1" page="1" pageScale="1" pageWidth="1019" pageHeight="1320" math="0" shadow="0">
            <root>
                <mxCell id="jC507fco_XKDHWjVbaC3-0"/>
                <mxCell id="jC507fco_XKDHWjVbaC3-1" parent="jC507fco_XKDHWjVbaC3-0"/>
                <mxCell id="jC507fco_XKDHWjVbaC3-2" value="sd example with a loop" style="shape=umlFrame;whiteSpace=wrap;html=1;width=150;height=30;boundedLbl=1;verticalAlign=middle;align=left;spacingLeft=5;fillColor=#f5f5f5;fontColor=#333333;strokeColor=#666666;" parent="jC507fco_XKDHWjVbaC3-1" vertex="1">
                    <mxGeometry x="20" y="30" width="740" height="490" as="geometry"/>
                </mxCell>
                <mxCell id="jC507fco_XKDHWjVbaC3-3" value=":Object" style="shape=umlLifeline;perimeter=lifelinePerimeter;whiteSpace=wrap;html=1;container=1;collapsible=0;recursiveResize=0;outlineConnect=0;fillColor=#dae8fc;strokeColor=#6c8ebf;" parent="jC507fco_XKDHWjVbaC3-1" vertex="1">
                    <mxGeometry x="320" y="80" width="100" height="400" as="geometry"/>
                </mxCell>
                <mxCell id="jC507fco_XKDHWjVbaC3-4" value="" style="html=1;points=[];perimeter=orthogonalPerimeter;" parent="jC507fco_XKDHWjVbaC3-3" vertex="1">
                    <mxGeometry x="45" y="80" width="10" height="240" as="geometry"/>
                </mxCell>
                <mxCell id="jC507fco_XKDHWjVbaC3-5" value="" style="html=1;points=[];perimeter=orthogonalPerimeter;" parent="jC507fco_XKDHWjVbaC3-3" vertex="1">
                    <mxGeometry x="50" y="120" width="10" height="55" as="geometry"/>
                </mxCell>
                <mxCell id="jC507fco_XKDHWjVbaC3-6" value="self call" style="edgeStyle=orthogonalEdgeStyle;html=1;align=left;spacingLeft=2;endArrow=block;rounded=0;entryX=1;entryY=0;" parent="jC507fco_XKDHWjVbaC3-3" target="jC507fco_XKDHWjVbaC3-5" edge="1">
                    <mxGeometry relative="1" as="geometry">
                        <mxPoint x="55" y="105" as="sourcePoint"/>
                        <Array as="points">
                            <mxPoint x="85" y="105"/>
                        </Array>
                    </mxGeometry>
                </mxCell>
                <mxCell id="jC507fco_XKDHWjVbaC3-7" value="" style="shape=umlLifeline;participant=umlActor;perimeter=lifelinePerimeter;whiteSpace=wrap;html=1;container=1;collapsible=0;recursiveResize=0;verticalAlign=top;spacingTop=36;outlineConnect=0;fillColor=#f8cecc;strokeColor=#b85450;" parent="jC507fco_XKDHWjVbaC3-1" vertex="1">
                    <mxGeometry x="95" y="80" width="20" height="410" as="geometry"/>
                </mxCell>
                <mxCell id="jC507fco_XKDHWjVbaC3-8" value="" style="html=1;points=[];perimeter=orthogonalPerimeter;" parent="jC507fco_XKDHWjVbaC3-7" vertex="1">
                    <mxGeometry x="5" y="70" width="10" height="300" as="geometry"/>
                </mxCell>
                <mxCell id="jC507fco_XKDHWjVbaC3-9" value="dispatch" style="html=1;verticalAlign=bottom;startArrow=oval;endArrow=block;startSize=8;rounded=0;" parent="jC507fco_XKDHWjVbaC3-7" target="jC507fco_XKDHWjVbaC3-8" edge="1">
                    <mxGeometry relative="1" as="geometry">
                        <mxPoint x="-55" y="70" as="sourcePoint"/>
                    </mxGeometry>
                </mxCell>
                <mxCell id="jC507fco_XKDHWjVbaC3-10" value="dispatch" style="html=1;verticalAlign=bottom;endArrow=block;entryX=0;entryY=0;rounded=0;" parent="jC507fco_XKDHWjVbaC3-1" source="jC507fco_XKDHWjVbaC3-8" target="jC507fco_XKDHWjVbaC3-4" edge="1">
                    <mxGeometry relative="1" as="geometry">
                        <mxPoint x="200" y="160" as="sourcePoint"/>
                    </mxGeometry>
                </mxCell>
                <mxCell id="jC507fco_XKDHWjVbaC3-11" value="[items=true]" style="edgeLabel;html=1;align=center;verticalAlign=middle;resizable=0;points=[];" parent="jC507fco_XKDHWjVbaC3-10" vertex="1" connectable="0">
                    <mxGeometry x="-0.8588" y="2" relative="1" as="geometry">
                        <mxPoint x="22" y="-8" as="offset"/>
                    </mxGeometry>
                </mxCell>
                <mxCell id="jC507fco_XKDHWjVbaC3-12" value="return" style="html=1;verticalAlign=bottom;endArrow=open;dashed=1;endSize=8;exitX=0;exitY=0.95;rounded=0;" parent="jC507fco_XKDHWjVbaC3-1" source="jC507fco_XKDHWjVbaC3-4" target="jC507fco_XKDHWjVbaC3-8" edge="1">
                    <mxGeometry relative="1" as="geometry">
                        <mxPoint x="200" y="236" as="targetPoint"/>
                    </mxGeometry>
                </mxCell>
                <mxCell id="jC507fco_XKDHWjVbaC3-13" value=":Object" style="shape=umlLifeline;perimeter=lifelinePerimeter;whiteSpace=wrap;html=1;container=1;collapsible=0;recursiveResize=0;outlineConnect=0;fillColor=#d5e8d4;strokeColor=#82b366;" parent="jC507fco_XKDHWjVbaC3-1" vertex="1">
                    <mxGeometry x="490" y="80" width="100" height="400" as="geometry"/>
                </mxCell>
                <mxCell id="jC507fco_XKDHWjVbaC3-14" value="" style="html=1;points=[];perimeter=orthogonalPerimeter;" parent="jC507fco_XKDHWjVbaC3-13" vertex="1">
                    <mxGeometry x="44" y="200" width="10" height="80" as="geometry"/>
                </mxCell>
                <mxCell id="jC507fco_XKDHWjVbaC3-15" value="dispatch" style="html=1;verticalAlign=bottom;endArrow=block;entryX=0;entryY=0;rounded=0;" parent="jC507fco_XKDHWjVbaC3-1" source="jC507fco_XKDHWjVbaC3-4" target="jC507fco_XKDHWjVbaC3-14" edge="1">
                    <mxGeometry relative="1" as="geometry">
                        <mxPoint x="374" y="280" as="sourcePoint"/>
                    </mxGeometry>
                </mxCell>
                <mxCell id="jC507fco_XKDHWjVbaC3-16" value="return" style="html=1;verticalAlign=bottom;endArrow=open;dashed=1;endSize=8;exitX=0;exitY=0.95;rounded=0;" parent="jC507fco_XKDHWjVbaC3-1" source="jC507fco_XKDHWjVbaC3-14" target="jC507fco_XKDHWjVbaC3-4" edge="1">
                    <mxGeometry relative="1" as="geometry">
                        <mxPoint x="680" y="430" as="targetPoint"/>
                    </mxGeometry>
                </mxCell>
                <mxCell id="jC507fco_XKDHWjVbaC3-17" value="" style="group" parent="jC507fco_XKDHWjVbaC3-1" vertex="1" connectable="0">
                    <mxGeometry x="278" y="170" width="334" height="190" as="geometry"/>
                </mxCell>
                <mxCell id="jC507fco_XKDHWjVbaC3-18" value="loop" style="shape=umlFrame;whiteSpace=wrap;html=1;fillColor=#ffe6cc;strokeColor=#d79b00;" parent="jC507fco_XKDHWjVbaC3-17" vertex="1">
                    <mxGeometry width="334" height="190" as="geometry"/>
                </mxCell>
                <mxCell id="jC507fco_XKDHWjVbaC3-19" value="&lt;span style=&quot;font-size: 11px; background-color: rgb(255, 255, 255);&quot;&gt;[items=true]&lt;/span&gt;" style="text;html=1;align=center;verticalAlign=middle;resizable=0;points=[];autosize=1;strokeColor=none;fillColor=none;" parent="jC507fco_XKDHWjVbaC3-17" vertex="1">
                    <mxGeometry y="32" width="70" height="20" as="geometry"/>
                </mxCell>
                <mxCell id="jC507fco_XKDHWjVbaC3-20" style="rounded=0;orthogonalLoop=1;jettySize=auto;html=1;endArrow=none;endFill=0;dashed=1;fillColor=#ffe6cc;strokeColor=#d79b00;" parent="jC507fco_XKDHWjVbaC3-1" source="jC507fco_XKDHWjVbaC3-21" target="jC507fco_XKDHWjVbaC3-18" edge="1">
                    <mxGeometry relative="1" as="geometry"/>
                </mxCell>
                <mxCell id="jC507fco_XKDHWjVbaC3-21" value="Only on valid items" style="shape=note2;boundedLbl=1;whiteSpace=wrap;html=1;size=25;verticalAlign=top;align=center;fillColor=#ffe6cc;strokeColor=#d79b00;" parent="jC507fco_XKDHWjVbaC3-1" vertex="1">
                    <mxGeometry x="630" y="200" width="120" height="60" as="geometry"/>
                </mxCell>
            </root>
        </mxGraphModel>
    </diagram>
    <diagram id="i7KtP-Vs8fw_sYRqWalm" name="Original template for alt with temp object">
        <mxGraphModel dx="579" dy="402" grid="1" gridSize="10" guides="1" tooltips="1" connect="1" arrows="1" fold="1" page="1" pageScale="1" pageWidth="1019" pageHeight="1320" math="0" shadow="0">
            <root>
                <mxCell id="0"/>
                <mxCell id="1" parent="0"/>
                <mxCell id="XppZFFv2hi1EjOijFOD9-25" value="[use case name]" style="shape=umlFrame;whiteSpace=wrap;html=1;width=120;height=30;boundedLbl=1;verticalAlign=middle;align=left;spacingLeft=5;fillColor=#f5f5f5;fontColor=#333333;strokeColor=#666666;" parent="1" vertex="1">
                    <mxGeometry x="40" y="40" width="850" height="680" as="geometry"/>
                </mxCell>
                <mxCell id="XppZFFv2hi1EjOijFOD9-1" value="alt" style="shape=umlFrame;whiteSpace=wrap;html=1;fillColor=#f5f5f5;fontColor=#333333;strokeColor=#666666;" parent="1" vertex="1">
                    <mxGeometry x="200" y="240" width="620" height="330" as="geometry"/>
                </mxCell>
                <mxCell id="XppZFFv2hi1EjOijFOD9-4" value="[View]" style="shape=umlLifeline;perimeter=lifelinePerimeter;whiteSpace=wrap;html=1;container=1;collapsible=0;recursiveResize=0;outlineConnect=0;fillColor=#ffe6cc;strokeColor=#d79b00;" parent="1" vertex="1">
                    <mxGeometry x="270" y="90" width="100" height="520" as="geometry"/>
                </mxCell>
                <mxCell id="XppZFFv2hi1EjOijFOD9-5" value="" style="html=1;points=[];perimeter=orthogonalPerimeter;fillColor=#ffe6cc;strokeColor=#d79b00;" parent="XppZFFv2hi1EjOijFOD9-4" vertex="1">
                    <mxGeometry x="45" y="80" width="10" height="380" as="geometry"/>
                </mxCell>
                <mxCell id="XppZFFv2hi1EjOijFOD9-6" value="" style="html=1;points=[];perimeter=orthogonalPerimeter;fillColor=#ffe6cc;strokeColor=#d79b00;" parent="XppZFFv2hi1EjOijFOD9-4" vertex="1">
                    <mxGeometry x="50" y="110" width="10" height="40" as="geometry"/>
                </mxCell>
                <mxCell id="XppZFFv2hi1EjOijFOD9-7" value="1.1: validSearch()" style="edgeStyle=orthogonalEdgeStyle;html=1;align=left;spacingLeft=2;endArrow=block;rounded=0;entryX=1;entryY=0;" parent="XppZFFv2hi1EjOijFOD9-4" target="XppZFFv2hi1EjOijFOD9-6" edge="1">
                    <mxGeometry x="-0.0094" relative="1" as="geometry">
                        <mxPoint x="55" y="100" as="sourcePoint"/>
                        <Array as="points">
                            <mxPoint x="80" y="100"/>
                            <mxPoint x="80" y="110"/>
                        </Array>
                        <mxPoint as="offset"/>
                    </mxGeometry>
                </mxCell>
                <mxCell id="XppZFFv2hi1EjOijFOD9-8" value="" style="html=1;points=[];perimeter=orthogonalPerimeter;fillColor=#ffe6cc;strokeColor=#d79b00;" parent="XppZFFv2hi1EjOijFOD9-4" vertex="1">
                    <mxGeometry x="50" y="380" width="10" height="40" as="geometry"/>
                </mxCell>
                <mxCell id="XppZFFv2hi1EjOijFOD9-9" value="1.3: displayError()" style="edgeStyle=orthogonalEdgeStyle;html=1;align=left;spacingLeft=2;endArrow=block;rounded=0;entryX=1;entryY=0;" parent="XppZFFv2hi1EjOijFOD9-4" source="XppZFFv2hi1EjOijFOD9-5" target="XppZFFv2hi1EjOijFOD9-8" edge="1">
                    <mxGeometry relative="1" as="geometry">
                        <mxPoint x="50" y="320" as="sourcePoint"/>
                        <Array as="points">
                            <mxPoint x="80" y="370"/>
                            <mxPoint x="80" y="380"/>
                        </Array>
                    </mxGeometry>
                </mxCell>
                <mxCell id="XppZFFv2hi1EjOijFOD9-10" value="[message]" style="html=1;verticalAlign=bottom;endArrow=block;entryX=0;entryY=0;rounded=0;" parent="1" source="XppZFFv2hi1EjOijFOD9-2" target="XppZFFv2hi1EjOijFOD9-5" edge="1">
                    <mxGeometry relative="1" as="geometry">
                        <mxPoint x="170" y="170.00000000000034" as="sourcePoint"/>
                    </mxGeometry>
                </mxCell>
                <mxCell id="XppZFFv2hi1EjOijFOD9-11" value="[Controller]" style="shape=umlLifeline;perimeter=lifelinePerimeter;whiteSpace=wrap;html=1;container=1;collapsible=0;recursiveResize=0;outlineConnect=0;fillColor=#dae8fc;strokeColor=#6c8ebf;" parent="1" vertex="1">
                    <mxGeometry x="490" y="90" width="100" height="520" as="geometry"/>
                </mxCell>
                <mxCell id="XppZFFv2hi1EjOijFOD9-12" value="" style="html=1;points=[];perimeter=orthogonalPerimeter;fillColor=#dae8fc;strokeColor=#6c8ebf;" parent="XppZFFv2hi1EjOijFOD9-11" vertex="1">
                    <mxGeometry x="45" y="250" width="10" height="20" as="geometry"/>
                </mxCell>
                <mxCell id="XppZFFv2hi1EjOijFOD9-13" value=":ItemDatabase" style="shape=umlLifeline;participant=umlEntity;perimeter=lifelinePerimeter;whiteSpace=wrap;html=1;container=1;collapsible=0;recursiveResize=0;verticalAlign=top;spacingTop=36;outlineConnect=0;fillColor=#e1d5e7;strokeColor=#9673a6;" parent="1" vertex="1">
                    <mxGeometry x="660" y="90" width="40" height="520" as="geometry"/>
                </mxCell>
                <mxCell id="XppZFFv2hi1EjOijFOD9-14" value="" style="html=1;points=[];perimeter=orthogonalPerimeter;fillColor=#e1d5e7;strokeColor=#9673a6;" parent="XppZFFv2hi1EjOijFOD9-13" vertex="1">
                    <mxGeometry x="15" y="180" width="10" height="40" as="geometry"/>
                </mxCell>
                <mxCell id="XppZFFv2hi1EjOijFOD9-15" value=":ResultList" style="shape=umlLifeline;perimeter=lifelinePerimeter;whiteSpace=wrap;html=1;container=1;collapsible=0;recursiveResize=0;outlineConnect=0;fillColor=#d5e8d4;strokeColor=#82b366;" parent="1" vertex="1">
                    <mxGeometry x="740" y="160" width="100" height="220" as="geometry"/>
                </mxCell>
                <mxCell id="XppZFFv2hi1EjOijFOD9-16" value="" style="shape=umlDestroy;whiteSpace=wrap;html=1;strokeWidth=3;" parent="XppZFFv2hi1EjOijFOD9-15" vertex="1">
                    <mxGeometry x="35" y="200" width="30" height="30" as="geometry"/>
                </mxCell>
                <mxCell id="XppZFFv2hi1EjOijFOD9-17" value="" style="html=1;points=[];perimeter=orthogonalPerimeter;fillColor=#d5e8d4;strokeColor=#82b366;" parent="XppZFFv2hi1EjOijFOD9-15" vertex="1">
                    <mxGeometry x="45" y="115" width="10" height="65" as="geometry"/>
                </mxCell>
                <mxCell id="XppZFFv2hi1EjOijFOD9-18" value="1.2: SearchItems(itemName)" style="html=1;verticalAlign=bottom;endArrow=block;entryX=0;entryY=0;rounded=0;" parent="1" source="XppZFFv2hi1EjOijFOD9-5" target="XppZFFv2hi1EjOijFOD9-14" edge="1">
                    <mxGeometry relative="1" as="geometry">
                        <mxPoint x="610" y="200" as="sourcePoint"/>
                    </mxGeometry>
                </mxCell>
                <mxCell id="XppZFFv2hi1EjOijFOD9-19" value="1.2.1: listResults()" style="html=1;verticalAlign=bottom;endArrow=block;entryX=0;entryY=0;rounded=0;" parent="1" source="XppZFFv2hi1EjOijFOD9-14" target="XppZFFv2hi1EjOijFOD9-17" edge="1">
                    <mxGeometry relative="1" as="geometry">
                        <mxPoint x="722" y="285" as="sourcePoint"/>
                    </mxGeometry>
                </mxCell>
                <mxCell id="XppZFFv2hi1EjOijFOD9-20" value="1.2.1.1: displayResults()" style="html=1;verticalAlign=bottom;endArrow=block;entryX=1;entryY=0;rounded=0;" parent="1" source="XppZFFv2hi1EjOijFOD9-17" target="XppZFFv2hi1EjOijFOD9-12" edge="1">
                    <mxGeometry relative="1" as="geometry">
                        <mxPoint x="610" y="320" as="sourcePoint"/>
                        <Array as="points">
                            <mxPoint x="610" y="340"/>
                        </Array>
                    </mxGeometry>
                </mxCell>
                <mxCell id="XppZFFv2hi1EjOijFOD9-21" value="" style="endArrow=none;dashed=1;html=1;rounded=0;entryX=1;entryY=0.576;entryDx=0;entryDy=0;entryPerimeter=0;exitX=0;exitY=0.573;exitDx=0;exitDy=0;exitPerimeter=0;" parent="1" source="XppZFFv2hi1EjOijFOD9-1" target="XppZFFv2hi1EjOijFOD9-1" edge="1">
                    <mxGeometry width="50" height="50" relative="1" as="geometry">
                        <mxPoint x="410" y="380" as="sourcePoint"/>
                        <mxPoint x="460" y="330" as="targetPoint"/>
                    </mxGeometry>
                </mxCell>
                <mxCell id="XppZFFv2hi1EjOijFOD9-22" value="[itemName=valid]" style="text;html=1;align=center;verticalAlign=middle;resizable=0;points=[];autosize=1;strokeColor=none;fillColor=none;" parent="1" vertex="1">
                    <mxGeometry x="200" y="270" width="110" height="20" as="geometry"/>
                </mxCell>
                <mxCell id="XppZFFv2hi1EjOijFOD9-23" value="[else]" style="text;html=1;align=center;verticalAlign=middle;resizable=0;points=[];autosize=1;strokeColor=none;fillColor=none;" parent="1" vertex="1">
                    <mxGeometry x="200" y="430" width="40" height="20" as="geometry"/>
                </mxCell>
                <mxCell id="XppZFFv2hi1EjOijFOD9-24" style="edgeStyle=none;rounded=0;orthogonalLoop=1;jettySize=auto;html=1;endArrow=open;endFill=0;dashed=1;" parent="1" source="XppZFFv2hi1EjOijFOD9-5" target="XppZFFv2hi1EjOijFOD9-2" edge="1">
                    <mxGeometry relative="1" as="geometry">
                        <Array as="points">
                            <mxPoint x="230" y="540"/>
                        </Array>
                        <mxPoint x="170" y="540" as="targetPoint"/>
                    </mxGeometry>
                </mxCell>
                <mxCell id="CerzYHDJLNklhN_fV1RF-4" value="" style="group" parent="1" vertex="1" connectable="0">
                    <mxGeometry x="160" y="80" width="20" height="570" as="geometry"/>
                </mxCell>
                <mxCell id="XppZFFv2hi1EjOijFOD9-2" value="[Actor]" style="shape=umlLifeline;participant=umlActor;perimeter=lifelinePerimeter;html=1;container=0;collapsible=0;recursiveResize=0;verticalAlign=top;spacingTop=36;outlineConnect=0;size=40;fillColor=#f8cecc;strokeColor=#b85450;" parent="CerzYHDJLNklhN_fV1RF-4" vertex="1">
                    <mxGeometry width="20" height="530" as="geometry"/>
                </mxCell>
                <mxCell id="CerzYHDJLNklhN_fV1RF-1" value="[Actor]" style="shape=umlActor;verticalLabelPosition=middle;verticalAlign=top;html=1;outlineConnect=0;strokeColor=light-dark(#B85450,#D7817E);fillColor=light-dark(#F8CECC,#512D2B);labelPosition=center;align=center;spacingTop=36;" parent="CerzYHDJLNklhN_fV1RF-4" vertex="1">
                    <mxGeometry y="530" width="20" height="40" as="geometry"/>
                </mxCell>
            </root>
        </mxGraphModel>
    </diagram>
</mxfile>